<svg width="368" height="200" viewBox="0 0 368 200" fill="none" xmlns="http://www.w3.org/2000/svg">
<g clip-path="url(#clip0_303_9325)">
<path fill-rule="evenodd" clip-rule="evenodd" d="M89.9573 3.0268C90.2272 2.64037 90.6171 2.78089 90.3741 1.10871C89.4656 -1.63001 90.6228 1.62301 90.5154 1.15789C90.3812 1.96588 89.8852 1.57243 89.5815 1.52887C89.6747 1.89141 89.8005 2.47597 89.9573 3.0268Z" fill="#1A1A1A"/>
<path fill-rule="evenodd" clip-rule="evenodd" d="M32.2615 170.606C30.1605 167.114 28.4466 163.274 26.7652 159.848C25.8708 161.228 23.3078 176.327 19.767 200H27.4279C29.7479 182.622 31.4731 171.845 32.2615 170.606Z" fill="#1A1A1A"/>
<path fill-rule="evenodd" clip-rule="evenodd" d="M25.7013 160.59C24.0029 157.348 22.4247 154.261 20.8281 151.916C19.9591 153.173 16.8577 171.68 12.5935 200H19.5183C22.6168 176.754 24.8691 161.921 25.7013 160.59Z" fill="#1A1A1A"/>
<path fill-rule="evenodd" clip-rule="evenodd" d="M20.0637 150.974C18.6324 148.935 17.2661 146.999 15.9167 145.158C14.3187 154.397 12.7009 163.514 11.148 172.575C9.56839 181.776 8.00992 190.931 6.49243 199.98L6.59416 199.999H12.8196C15.1396 183.896 17.6037 167.499 20.0637 150.973V150.974Z" fill="#1A1A1A"/>
<path fill-rule="evenodd" clip-rule="evenodd" d="M15.3558 144.2C14.1604 142.293 13.0202 140.597 11.9351 138.999C9.87782 149.142 7.82342 159.173 5.84531 169.013C3.84883 178.952 1.88909 188.777 0 198.411V198.806C1.79443 199.144 3.63831 199.48 5.53164 199.786C7.07598 190.665 8.70933 181.401 10.3568 172.056C11.976 162.869 13.6998 153.593 15.3558 144.2Z" fill="#1A1A1A"/>
<path fill-rule="evenodd" clip-rule="evenodd" d="M11.3953 138.291C10.3724 136.763 9.56698 135.222 8.85486 133.585C6.35114 144.491 3.81775 155.301 1.47369 165.941L0 172.631V194.188C1.67291 185.772 3.40941 177.234 5.16428 168.608C7.1876 158.651 9.28015 148.504 11.3967 138.292L11.3953 138.291Z" fill="#1A1A1A"/>
<path fill-rule="evenodd" clip-rule="evenodd" d="M8.33349 132.967C7.46595 131.595 6.68742 130.292 6.00073 128.858C3.98447 137.03 1.97387 145.133 0 153.155V169.339L0.847761 165.581C3.25399 154.907 5.77042 143.995 8.33349 132.968V132.967Z" fill="#1A1A1A"/>
<path fill-rule="evenodd" clip-rule="evenodd" d="M5.61641 128.261C4.92973 127.128 4.46063 125.797 3.99437 124.474C2.64784 129.515 1.31685 134.528 0 139.506V150.829C1.85942 143.388 3.7471 135.86 5.61641 128.262V128.261Z" fill="#1A1A1A"/>
<path fill-rule="evenodd" clip-rule="evenodd" d="M3.49277 124.118C3.02792 122.967 2.60828 121.787 2.31015 120.647L0 128.865V137.233C1.15295 132.885 2.31721 128.511 3.49277 124.118Z" fill="#1A1A1A"/>
<path fill-rule="evenodd" clip-rule="evenodd" d="M2.12081 119.744C1.7478 118.634 1.4525 117.571 1.19534 116.62L0 120.702V127.267L2.12081 119.744Z" fill="#1A1A1A"/>
<path fill-rule="evenodd" clip-rule="evenodd" d="M1.11339 116.027C0.898626 115.021 0.802547 114.009 0.666905 113.032L0 115.246V119.804L1.11339 116.027Z" fill="#1A1A1A"/>
<path fill-rule="evenodd" clip-rule="evenodd" d="M0.611801 112.663C0.517134 111.7 0.580716 110.62 0.679621 109.594L0 111.785V114.684L0.611801 112.663Z" fill="#1A1A1A"/>
<path fill-rule="evenodd" clip-rule="evenodd" d="M0.719184 108.89C0.729074 108.075 0.900039 107.124 1.071 106.116L0 109.553V111.199L0.719184 108.89Z" fill="#1A1A1A"/>
<path fill-rule="evenodd" clip-rule="evenodd" d="M1.08796 105.859C1.24903 105 1.52032 104.174 1.83258 103.237L0.00141335 109.13V109.326L1.08937 105.859H1.08796Z" fill="#1A1A1A"/>
<path fill-rule="evenodd" clip-rule="evenodd" d="M2.01061 102.683C2.38927 101.868 2.8075 100.976 3.09998 100.279C2.06995 103.616 1.03427 106.954 0 110.284V109.149C0.675383 106.994 1.34794 104.842 2.01061 102.683Z" fill="#1A1A1A"/>
<path fill-rule="evenodd" clip-rule="evenodd" d="M3.42213 99.7478C3.86579 98.9735 4.45639 98.1023 5.04418 97.2803C3.35996 102.79 1.6715 108.297 -0.00141335 113.789V110.838C1.14306 107.142 2.28895 103.439 3.42071 99.7478H3.42213Z" fill="#1A1A1A"/>
<path fill-rule="evenodd" clip-rule="evenodd" d="M91.2332 200C87.1597 196.043 83.2882 192.361 79.6146 188.604C77.3539 192.318 74.9901 196.15 72.6319 200H91.2332Z" fill="#1A1A1A"/>
<path fill-rule="evenodd" clip-rule="evenodd" d="M77.5178 186.705C73.3129 182.288 69.4118 178.626 65.741 175.243C61.594 180.957 57.7509 186.503 53.6957 192.651C55.5085 194.871 57.3595 197.364 59.2966 200.001H69.2041C71.9961 195.439 74.7654 191.028 77.5178 186.705Z" fill="#1A1A1A"/>
<path fill-rule="evenodd" clip-rule="evenodd" d="M64.0215 173.432C60.3846 170.186 57.1815 167.1 54.0716 164.131C50.4361 169.003 46.706 174.199 43.0691 179.325C45.8455 182.873 48.9101 186.502 52.0624 190.511C56.0695 184.717 59.907 179.101 64.0215 173.432Z" fill="#1A1A1A"/>
<path fill-rule="evenodd" clip-rule="evenodd" d="M52.5654 162.765C49.6971 160.254 46.9476 157.705 44.3732 155.337C41.1503 159.605 37.8073 163.75 34.4205 168.172C36.7787 171.083 39.1835 174.154 41.7466 177.61C45.3566 172.634 49.0062 167.501 52.5668 162.765H52.5654Z" fill="#1A1A1A"/>
<path fill-rule="evenodd" clip-rule="evenodd" d="M35.4378 146.627C33.4639 144.672 31.5212 142.928 29.6448 141.242C26.9842 144.391 24.0778 147.855 21.4257 151.203C22.9291 153.224 24.6741 155.382 26.4134 157.841C29.4342 153.887 32.3845 150.439 35.4378 146.627Z" fill="#1A1A1A"/>
<path fill-rule="evenodd" clip-rule="evenodd" d="M28.554 140.663C26.8768 139.022 25.1799 137.532 23.7048 135.868C21.3254 138.674 18.8302 141.566 16.5115 144.373C17.7761 146.268 19.1862 148.168 20.6585 150.193C23.2315 147.04 25.974 143.75 28.554 140.663Z" fill="#1A1A1A"/>
<path fill-rule="evenodd" clip-rule="evenodd" d="M22.6366 134.91C21.2731 133.402 19.9662 132.029 18.7143 130.665C16.5398 133.139 14.2975 135.755 12.236 138.193C13.235 139.757 14.4148 141.342 15.6511 143.087C17.9683 140.31 20.4197 137.529 22.638 134.91H22.6366Z" fill="#1A1A1A"/>
<path fill-rule="evenodd" clip-rule="evenodd" d="M17.9273 129.905C16.7362 128.736 15.6765 127.519 14.5447 126.39C12.6613 128.511 10.6747 130.683 8.78845 132.804C9.58252 134.331 10.5108 135.832 11.3642 137.446C13.5515 134.99 15.8333 132.386 17.9273 129.905Z" fill="#1A1A1A"/>
<path fill-rule="evenodd" clip-rule="evenodd" d="M14.1053 125.8C13.1092 124.727 12.2021 123.48 11.4207 122.37C9.6673 124.261 8.0184 126.125 6.14485 128.138C6.9149 129.496 7.69343 130.779 8.51717 132.173C10.3582 130.118 12.2614 127.987 14.1067 125.8H14.1053Z" fill="#1A1A1A"/>
<path fill-rule="evenodd" clip-rule="evenodd" d="M10.9177 121.496C10.07 120.508 9.34232 119.571 8.58216 118.604C6.95588 120.368 5.35078 122.182 3.94633 123.727C4.41401 124.949 5.04983 126.095 5.56555 127.408C7.31335 125.438 9.12614 123.41 10.9192 121.496H10.9177Z" fill="#1A1A1A"/>
<path fill-rule="evenodd" clip-rule="evenodd" d="M8.27838 118.299C7.60441 117.337 7.05478 116.293 6.46559 115.448C5.17134 116.794 3.86438 118.284 2.58991 119.723C2.96857 120.84 3.30768 122.027 3.77112 123.178C5.25753 121.541 6.73687 119.902 8.27838 118.299Z" fill="#1A1A1A"/>
<path fill-rule="evenodd" clip-rule="evenodd" d="M6.2155 114.876C5.63196 114.068 5.28437 113.135 4.93962 112.268C3.81634 113.441 2.64501 114.67 1.54716 115.868C1.76193 116.894 2.09679 117.904 2.30873 119.114C3.58038 117.738 4.96788 116.19 6.21691 114.876H6.2155Z" fill="#1A1A1A"/>
<path fill-rule="evenodd" clip-rule="evenodd" d="M4.6867 111.893C4.4239 110.989 4.1187 110.229 3.8559 109.378C2.85837 110.417 1.97104 111.436 0.924059 112.535C1.06253 113.468 1.19817 114.474 1.41293 115.445C2.55176 114.192 3.64396 113.004 4.6867 111.894V111.893Z" fill="#1A1A1A"/>
<path fill-rule="evenodd" clip-rule="evenodd" d="M3.73297 108.769C3.58603 107.936 3.39952 107.198 3.36985 106.317C2.45709 107.305 1.6602 108.169 0.901452 108.973C0.802546 110.013 0.826566 110.923 0.881671 111.942C1.76899 110.975 2.81315 109.803 3.73297 108.77V108.769Z" fill="#1A1A1A"/>
<path fill-rule="evenodd" clip-rule="evenodd" d="M17.1756 85.8687C18.3286 85.249 19.4109 84.6659 20.5978 84.1909C20.5963 84.3609 20.6317 84.4635 20.7391 84.4523C19.4787 85.0425 18.1435 85.8238 17.0951 86.3844C17.0993 86.1554 17.0993 86.0893 17.1756 85.8687Z" fill="#1A1A1A"/>
<path fill-rule="evenodd" clip-rule="evenodd" d="M3.22856 103.325C3.38398 102.533 3.49701 101.773 3.68069 101.105C3.21443 101.566 2.58991 102.241 2.07843 102.82C1.80432 103.716 1.53303 104.593 1.25469 105.501C2.00637 104.704 2.56165 104.066 3.22714 103.325H3.22856Z" fill="#1A1A1A"/>
<path fill-rule="evenodd" clip-rule="evenodd" d="M3.89405 100.504C4.15403 99.7702 4.4465 99.0255 4.73898 98.3088C4.27413 98.8442 3.92372 99.3079 3.45745 99.825C2.9714 100.685 2.59415 101.503 2.21265 102.404C2.80467 101.707 3.27377 101.164 3.89546 100.504H3.89405Z" fill="#1A1A1A"/>
<path fill-rule="evenodd" clip-rule="evenodd" d="M9.40449 91.8295C10.077 91.1283 10.7821 90.4834 11.5211 89.9044C11.3331 90.1658 11.1438 90.4398 10.9926 90.6604C10.176 91.3869 9.39601 92.0614 8.64857 92.7556C8.91279 92.4647 9.06539 92.2469 9.40449 91.8295Z" fill="#1A1A1A"/>
<path fill-rule="evenodd" clip-rule="evenodd" d="M133.11 193.455C125.993 188.664 119.831 184.127 113.401 179.956C109.566 186.462 105.58 192.894 101.555 200.001H129.607C130.764 197.795 131.931 195.613 133.11 193.455Z" fill="#1A1A1A"/>
<path fill-rule="evenodd" clip-rule="evenodd" d="M110.518 178.108C104.862 174.122 99.5723 170.304 94.6765 166.805C90.5705 172.916 86.5041 179.005 82.4546 185.47C87.2077 189.87 92.0725 194.768 97.6323 199.525C101.895 192.034 106.326 185.042 110.518 178.108Z" fill="#1A1A1A"/>
<path fill-rule="evenodd" clip-rule="evenodd" d="M92.3338 165.174C87.6429 162.459 83.4917 159.464 79.4549 156.676C75.7305 161.662 71.883 166.889 68.1642 172.343C71.9508 175.891 75.835 179.512 80.1883 183.666C84.3366 177.16 88.2137 171.03 92.3338 165.174Z" fill="#1A1A1A"/>
<path fill-rule="evenodd" clip-rule="evenodd" d="M77.6167 155.194C73.7283 152.69 70.1833 150.152 66.7682 148.02C63.3503 152.288 59.7134 157.126 56.2419 162.061C59.421 164.853 62.8092 167.578 66.4658 170.706C70.0448 165.495 73.8668 160.317 77.6167 155.194Z" fill="#1A1A1A"/>
<path fill-rule="evenodd" clip-rule="evenodd" d="M65.1405 146.981C61.8879 145.051 58.949 142.997 56.0341 141.319C52.7929 145.129 49.6858 149.09 46.3753 153.346C48.978 155.614 51.842 157.927 54.7159 160.497C58.1521 155.991 61.7141 151.217 65.1405 146.981Z" fill="#1A1A1A"/>
<path fill-rule="evenodd" clip-rule="evenodd" d="M26.3752 82.0184C25.6193 81.9411 24.9355 81.8596 24.3251 81.7416C23.0732 82.9739 21.9245 84.1234 20.6981 85.2925C21.3099 85.3768 21.8864 85.5764 22.5363 85.7281C23.7995 84.5365 25.0188 83.2971 26.3752 82.0184Z" fill="#1A1A1A"/>
<path fill-rule="evenodd" clip-rule="evenodd" d="M45.8412 134.445C43.5396 133.069 41.4555 131.612 39.3135 130.274C36.66 133.427 33.9274 136.596 31.2456 139.818C33.1573 141.357 35.1397 143.06 37.2732 144.772C40.0977 141.298 42.9306 137.9 45.8412 134.445Z" fill="#1A1A1A"/>
<path fill-rule="evenodd" clip-rule="evenodd" d="M38.1181 129.846C36.2093 128.506 34.2834 127.301 32.4523 126.068C30.1732 128.695 27.7896 131.442 25.5021 134.216C27.0591 135.769 28.7137 137.24 30.4346 138.84C32.9623 135.919 35.5367 132.877 38.1181 129.846Z" fill="#1A1A1A"/>
<path fill-rule="evenodd" clip-rule="evenodd" d="M31.312 125.339C29.5925 124.295 28.2078 123.074 26.679 122.079C24.5073 124.502 22.3159 126.899 20.2615 129.289C21.5133 130.599 22.9023 131.878 24.3915 133.312C26.7581 130.429 29.0683 127.835 31.3106 125.339H31.312Z" fill="#1A1A1A"/>
<path fill-rule="evenodd" clip-rule="evenodd" d="M25.8143 121.414C24.3816 120.411 23.0803 119.394 21.7126 118.608C19.815 120.663 17.8213 122.801 15.8051 125.206C16.8959 126.338 18.0389 127.444 19.3148 128.731C21.4102 126.359 23.6426 123.782 25.8143 121.414Z" fill="#1A1A1A"/>
<path fill-rule="evenodd" clip-rule="evenodd" d="M21.2293 118.177C20.0312 117.226 18.881 116.425 17.8948 115.503C16.1569 117.384 14.3639 119.335 12.633 121.167C13.5359 122.232 14.4458 123.41 15.5253 124.564C17.4172 122.35 19.3304 120.264 21.2293 118.175V118.177Z" fill="#1A1A1A"/>
<path fill-rule="evenodd" clip-rule="evenodd" d="M17.1898 114.872C16.1371 114.186 15.2879 113.271 14.443 112.486C12.7856 114.211 11.1127 116.027 9.46525 117.875C10.3483 118.676 11.035 119.745 11.8475 120.719C13.5797 118.798 15.4533 116.769 17.1898 114.873V114.872Z" fill="#1A1A1A"/>
<path fill-rule="evenodd" clip-rule="evenodd" d="M13.9796 112.239C13.0626 111.571 12.4635 110.682 11.7118 109.919C10.2932 111.394 8.82519 112.965 7.46595 114.463C8.13568 115.3 8.7277 116.236 9.40308 117.203C10.9276 115.544 12.4409 113.88 13.9796 112.239Z" fill="#1A1A1A"/>
<path fill-rule="evenodd" clip-rule="evenodd" d="M7.54789 104.863C7.24129 104.132 6.97001 103.483 6.73687 102.812C5.76336 103.841 4.90288 104.752 4.00002 105.716C4.14696 106.497 4.37444 107.216 4.44368 108.131C5.54859 106.992 6.53482 105.918 7.54931 104.864L7.54789 104.863Z" fill="#1A1A1A"/>
<path fill-rule="evenodd" clip-rule="evenodd" d="M6.48537 102.576C6.40766 101.795 6.17311 101.26 6.13072 100.606C5.39458 101.374 4.61606 102.203 3.87427 103.011C3.83612 103.755 3.90818 104.534 3.98306 105.276C4.80822 104.372 5.62913 103.453 6.48537 102.576Z" fill="#1A1A1A"/>
<path fill-rule="evenodd" clip-rule="evenodd" d="M6.24517 98.0405C6.30593 97.5543 6.48396 96.8376 6.61677 96.2994C6.11942 96.8489 5.57968 97.4686 5.11906 97.9744C4.75311 98.7346 4.49737 99.4569 4.27554 100.188C4.93114 99.5201 5.55283 98.7866 6.24376 98.0419L6.24517 98.0405Z" fill="#1A1A1A"/>
<path fill-rule="evenodd" clip-rule="evenodd" d="M7.49986 94.3673C7.77397 93.8951 8.19785 93.1869 8.76867 92.4829C8.46489 92.8806 8.08481 93.3092 7.92939 93.6155C7.24553 94.4347 6.74535 95.0867 6.2042 95.8245C6.58851 95.3678 7.08304 94.8366 7.50127 94.3673H7.49986Z" fill="#1A1A1A"/>
<path fill-rule="evenodd" clip-rule="evenodd" d="M11.3543 89.4871C11.8757 88.9123 12.4282 88.4022 12.9411 87.9456C12.6076 88.377 12.3095 88.7859 11.9774 89.14C11.3487 89.7231 10.7171 90.3541 10.1604 90.8585C10.6097 90.3569 10.9446 89.9775 11.3558 89.4871H11.3543Z" fill="#1A1A1A"/>
<path fill-rule="evenodd" clip-rule="evenodd" d="M9.99651 92.3971C10.0841 91.9587 10.2819 91.4866 10.3695 91.0439C9.84391 91.6636 9.28015 92.2861 8.75313 92.8468C8.55532 93.3597 8.27838 93.9204 8.07351 94.474C8.67966 93.829 9.35786 93.1391 9.99651 92.3971Z" fill="#1A1A1A"/>
<path fill-rule="evenodd" clip-rule="evenodd" d="M250.755 126.113C239.152 123.671 228.49 121.264 218.448 118.974C214.578 125.214 210.628 131.174 206.928 137.569C216.669 140.279 227.416 143.773 239.316 147.33C243.187 139.966 246.94 132.999 250.756 126.113H250.755Z" fill="#1A1A1A"/>
<path fill-rule="evenodd" clip-rule="evenodd" d="M183.84 119.066C175.739 117.271 168.613 115.5 161.52 114.161C158.041 118.871 154.253 123.75 150.476 128.865C157.397 130.967 164.661 133.224 172.467 135.721C176.104 130.111 180.063 124.35 183.84 119.065V119.066Z" fill="#1A1A1A"/>
<path fill-rule="evenodd" clip-rule="evenodd" d="M174.309 82.4062C167.858 82.1477 161.822 81.757 155.998 81.4479C152.721 85.0255 149.514 88.5146 146.431 92.14C152.08 92.6529 158.079 93.3049 164.461 94.238C167.646 90.1517 170.825 86.1946 174.309 82.4062Z" fill="#1A1A1A"/>
<path fill-rule="evenodd" clip-rule="evenodd" d="M208.587 200C200.317 195.614 192.579 191.466 185.291 187.468C183.208 191.562 181.121 195.736 179.058 200H208.586H208.587Z" fill="#1A1A1A"/>
<path fill-rule="evenodd" clip-rule="evenodd" d="M180.34 184.901C170.845 179.852 162.479 174.985 154.294 170.629C150 178.057 145.601 186.045 141.224 194.018C143.903 195.999 146.63 197.986 149.426 200H172.97C175.464 194.84 177.915 189.825 180.34 184.901Z" fill="#1A1A1A"/>
<path fill-rule="evenodd" clip-rule="evenodd" d="M150.507 168.674C143.096 165.037 136.255 161.659 129.97 158.311C125.921 164.458 121.607 171.057 117.712 177.865C123.834 182.106 130.419 186.458 137.661 191.146C141.844 183.294 146.212 175.999 150.507 168.674Z" fill="#1A1A1A"/>
<path fill-rule="evenodd" clip-rule="evenodd" d="M126.53 157.378C120.407 154.247 114.828 151.509 109.538 148.894C105.891 154.077 102.044 159.439 98.1763 164.893C103.256 168.352 108.817 172.166 114.674 176.178C118.692 169.41 122.568 163.424 126.53 157.376V157.378Z" fill="#1A1A1A"/>
<path fill-rule="evenodd" clip-rule="evenodd" d="M106.275 146.988C101.387 144.734 96.7705 142.536 92.3988 140.349C88.9103 144.819 85.4062 149.537 81.8979 154.383C86.0364 157.248 90.367 159.986 95.0947 162.719C98.7585 157.536 102.547 152.233 106.275 146.989V146.988Z" fill="#1A1A1A"/>
<path fill-rule="evenodd" clip-rule="evenodd" d="M89.8711 139.069C85.8979 136.824 82.0943 135.167 78.3204 133.526C75.0367 137.705 71.6669 141.975 68.2038 146.291C71.7728 148.293 75.5044 150.617 79.2656 153.199C82.7499 148.422 86.3896 143.635 89.8711 139.069Z" fill="#1A1A1A"/>
<path fill-rule="evenodd" clip-rule="evenodd" d="M76.6686 133.066C73.3158 131.443 70.0052 129.917 66.7823 128.567C63.9282 132.167 60.9088 135.754 57.9289 139.343C60.8551 141.155 63.9536 143.105 67.096 145.196C70.3288 141.087 73.5927 136.976 76.6672 133.066H76.6686Z" fill="#1A1A1A"/>
<path fill-rule="evenodd" clip-rule="evenodd" d="M55.3687 123.192C52.7053 122.225 50.3796 121.142 48.0694 120.075C45.5841 122.874 42.9998 125.814 40.619 128.584C42.7172 129.937 44.7575 131.394 47.2612 132.677C49.8865 129.52 52.5993 126.33 55.3687 123.191V123.192Z" fill="#1A1A1A"/>
<path fill-rule="evenodd" clip-rule="evenodd" d="M46.8416 119.575C44.5979 118.513 42.5717 117.455 40.5781 116.672C38.2637 119.183 36.1217 121.628 33.7267 124.343C35.5523 125.53 37.4315 126.677 39.3742 127.991C41.9189 125.14 44.3096 122.333 46.8416 119.575Z" fill="#1A1A1A"/>
<path fill-rule="evenodd" clip-rule="evenodd" d="M39.5848 116.281C37.7663 115.426 36.116 114.537 34.4035 113.796C32.229 116.123 30.0687 118.406 28.1343 120.71C29.5459 121.75 31.2061 122.747 32.8422 123.816C35.1651 121.246 37.3877 118.756 39.5834 116.281H39.5848Z" fill="#1A1A1A"/>
<path fill-rule="evenodd" clip-rule="evenodd" d="M33.1559 113.471C31.4971 112.726 30.0093 112.025 28.5681 111.221C26.8443 113.083 24.7984 115.271 23.0478 117.273C24.2968 118.177 25.7154 119.076 27.1495 120.095C29.0881 117.845 31.1707 115.629 33.1559 113.471Z" fill="#1A1A1A"/>
<path fill-rule="evenodd" clip-rule="evenodd" d="M27.7712 110.815C26.3865 110.2 25.0061 109.591 23.791 108.971C22.1011 110.764 20.4762 112.538 18.7963 114.29C19.8602 115.094 21.088 115.836 22.2467 116.828C24.0764 114.762 25.8525 112.789 27.7712 110.816V110.815Z" fill="#1A1A1A"/>
<path fill-rule="evenodd" clip-rule="evenodd" d="M23.4363 108.629C22.2283 108.054 21.1827 107.412 20.0283 106.892C18.566 108.39 17.0174 110.038 15.4575 111.657C16.4211 112.379 17.3522 113.194 18.4049 114.024C20.0439 112.222 21.7465 110.458 23.4363 108.629Z" fill="#1A1A1A"/>
<path fill-rule="evenodd" clip-rule="evenodd" d="M19.5296 106.386C18.6112 105.707 17.6998 105.069 16.7913 104.59C15.2936 106.161 13.9386 107.589 12.5737 109.045C13.2872 109.812 14.0827 110.524 14.922 111.283C16.4819 109.608 18.029 108.012 19.5296 106.385V106.386Z" fill="#1A1A1A"/>
<path fill-rule="evenodd" clip-rule="evenodd" d="M16.2629 104.247C15.4363 103.798 14.6521 103.325 13.9838 102.735C12.715 104.077 11.5564 105.291 10.1943 106.744C10.7821 107.398 11.3741 108.036 12.0453 108.695C13.4087 107.278 14.7623 105.884 16.2629 104.247Z" fill="#1A1A1A"/>
<path fill-rule="evenodd" clip-rule="evenodd" d="M142.798 99.3121C137.398 98.5702 132.252 97.9364 127.257 97.1552C124.142 100.892 121.004 104.494 117.7 108.245C122.46 109.248 127.527 110.195 132.925 111.527C136.239 107.348 139.563 103.325 142.8 99.3121H142.798Z" fill="#1A1A1A"/>
<path fill-rule="evenodd" clip-rule="evenodd" d="M42.5844 80.075C41.115 80.0862 39.7218 80.0891 38.405 80.1115C36.862 81.6573 35.2711 83.165 33.7833 84.6658C35.069 84.6433 36.1838 84.8583 37.5911 84.9089C39.216 83.2859 40.8677 81.6671 42.5858 80.0736L42.5844 80.075Z" fill="#1A1A1A"/>
<path fill-rule="evenodd" clip-rule="evenodd" d="M42.3527 75.2734C41.0203 75.435 39.7571 75.5573 38.5335 75.6571C37.0358 77.0622 35.6045 78.4126 34.2029 79.7392C35.329 79.7462 36.4919 79.7321 37.6914 79.6843C39.1948 78.2539 40.7928 76.7447 42.3527 75.2734Z" fill="#1A1A1A"/>
<path fill-rule="evenodd" clip-rule="evenodd" d="M298.268 200C294.33 198.34 290.482 196.706 286.73 195.092C286.099 196.703 285.481 198.34 284.87 200H298.269H298.268Z" fill="#1A1A1A"/>
<path fill-rule="evenodd" clip-rule="evenodd" d="M139.9 64.0502C135.243 64.2933 130.821 64.5069 126.609 64.7064C124.012 67.2807 121.442 69.8916 118.791 72.3844C123.004 72.4097 127.221 72.3507 131.756 72.2888C134.387 69.5009 137.172 66.7748 139.899 64.0502H139.9Z" fill="#1A1A1A"/>
<path fill-rule="evenodd" clip-rule="evenodd" d="M230.33 171.38C218.478 166.538 207.61 162.256 197.267 158.298C193.237 165.74 188.923 173.737 184.99 182.304C195.143 187.608 205.778 192.992 217.668 198.754C221.688 189.444 226.03 180.22 230.328 171.38H230.33Z" fill="#1A1A1A"/>
<path fill-rule="evenodd" clip-rule="evenodd" d="M163.228 144.996C155.729 142.211 148.591 139.734 141.973 137.296C138.119 142.806 134.191 148.647 130.37 154.553C136.696 157.788 143.663 161.073 150.783 164.397C154.931 157.891 159.071 151.193 163.226 144.998L163.228 144.996Z" fill="#1A1A1A"/>
<path fill-rule="evenodd" clip-rule="evenodd" d="M117.723 129.374C112.542 127.621 107.814 126.021 103.312 124.372C100.048 128.388 96.6334 132.752 93.3568 137.237C97.6437 139.305 102.336 141.5 107.074 143.768C110.499 138.786 114.188 133.902 117.724 129.374H117.723Z" fill="#1A1A1A"/>
<path fill-rule="evenodd" clip-rule="evenodd" d="M100.741 123.576C96.4497 122.137 92.4299 120.865 88.5768 119.703C85.3497 123.51 82.2172 127.374 78.9901 131.217C82.6552 132.781 86.3896 134.352 90.4292 136.307C93.929 131.818 97.2819 127.496 100.741 123.576Z" fill="#1A1A1A"/>
<path fill-rule="evenodd" clip-rule="evenodd" d="M86.9167 119.28C83.3448 118.129 79.8788 116.997 76.4779 115.846C73.645 119.201 70.8106 122.499 67.9141 125.921C71.0466 127.322 74.3543 128.894 77.7199 130.409C80.8707 126.614 83.982 122.863 86.9152 119.279L86.9167 119.28Z" fill="#1A1A1A"/>
<path fill-rule="evenodd" clip-rule="evenodd" d="M74.2313 115.164C71.1836 114.247 68.1981 113.364 65.4711 112.486C62.6227 115.657 59.9183 118.608 57.2507 121.78C59.8081 122.787 62.5605 123.93 65.5743 125.369C68.4171 121.759 71.4125 118.376 74.2313 115.164Z" fill="#1A1A1A"/>
<path fill-rule="evenodd" clip-rule="evenodd" d="M64.1345 112.202C61.3637 111.439 58.8812 110.565 56.386 109.848C53.9416 112.486 51.4492 115.322 49.1263 118.069C51.3799 119.054 53.6972 120.148 56.3874 121.06C58.8854 118.209 61.5375 115.122 64.1331 112.202H64.1345Z" fill="#1A1A1A"/>
<path fill-rule="evenodd" clip-rule="evenodd" d="M55.0578 109.421C52.67 108.779 50.422 108.222 48.2997 107.603C46.0602 110.044 43.7558 112.445 41.6293 114.835C43.5721 115.573 45.7014 116.443 47.8151 117.487C50.179 114.72 52.612 112.088 55.0578 109.421Z" fill="#1A1A1A"/>
<path fill-rule="evenodd" clip-rule="evenodd" d="M47.322 107.296C45.2987 106.74 43.363 106.15 41.5106 105.503C39.4406 107.731 37.3509 109.951 35.3997 112.116C37.0302 112.898 38.8303 113.673 40.6784 114.4C42.8896 112.061 45.0754 109.657 47.3234 107.296H47.322Z" fill="#1A1A1A"/>
<path fill-rule="evenodd" clip-rule="evenodd" d="M40.2404 105.28C38.4488 104.738 36.8578 104.126 35.3205 103.643C33.4173 105.55 31.5438 107.504 29.6914 109.4C31.0549 110.245 32.6176 111.008 34.3089 111.69C36.3025 109.507 38.2411 107.402 40.2418 105.28H40.2404Z" fill="#1A1A1A"/>
<path fill-rule="evenodd" clip-rule="evenodd" d="M34.1902 103.55C32.701 103.037 31.2202 102.606 29.7847 102.211C28.2149 103.852 26.4826 105.645 24.8903 107.389C26.1803 107.92 27.4392 108.525 28.821 109.115C30.5589 107.292 32.3618 105.46 34.1902 103.549V103.55Z" fill="#1A1A1A"/>
<path fill-rule="evenodd" clip-rule="evenodd" d="M29.3933 101.912C28.1541 101.406 26.9249 100.938 25.6617 100.522C24.1612 102.075 22.5405 103.812 21.0598 105.38C22.176 105.94 23.2583 106.538 24.424 107.114C26.0545 105.388 27.7514 103.691 29.3947 101.913L29.3933 101.912Z" fill="#1A1A1A"/>
<path fill-rule="evenodd" clip-rule="evenodd" d="M25.0866 100.172C23.9464 99.7478 22.9234 99.3726 21.8666 99.0508C20.4014 100.5 18.9658 101.916 17.5585 103.425C18.5024 103.879 19.4137 104.428 20.3674 105.03C21.9259 103.434 23.4731 101.781 25.0852 100.172H25.0866Z" fill="#1A1A1A"/>
<path fill-rule="evenodd" clip-rule="evenodd" d="M108.094 95.1893C104.047 94.7762 100.152 94.4629 96.4158 94.054C93.6535 97.0259 90.8361 100.07 88.0258 103.071C91.6302 103.675 95.229 104.399 99.27 105.217C102.217 101.809 105.134 98.4199 108.094 95.1893Z" fill="#1A1A1A"/>
<path fill-rule="evenodd" clip-rule="evenodd" d="M94.7189 93.7842C91.1964 93.3415 87.7545 93.0422 84.663 92.6305C81.9558 95.4072 79.2783 98.2471 76.7647 101.028C79.8251 101.621 82.9831 102.22 86.3939 102.765C89.1011 99.8518 91.9552 96.7463 94.7189 93.7842Z" fill="#1A1A1A"/>
<path fill-rule="evenodd" clip-rule="evenodd" d="M83.1286 92.4604C79.9156 92.1513 77.0346 91.8773 74.2398 91.6089C71.8195 94.0652 69.2804 96.6985 66.8643 99.2208C69.5517 99.7267 72.3309 100.238 75.2571 100.858C77.8032 97.9885 80.4892 95.1556 83.1286 92.4604Z" fill="#1A1A1A"/>
<path fill-rule="evenodd" clip-rule="evenodd" d="M72.9215 91.4571C70.1861 91.1957 67.5891 91.0369 65.1094 90.8079C62.8388 93.0983 60.4241 95.6319 58.2327 97.8858C60.5937 98.2835 63.0692 98.5786 65.6054 98.9777C67.9212 96.5621 70.5026 93.9288 72.923 91.4571H72.9215Z" fill="#1A1A1A"/>
<path fill-rule="evenodd" clip-rule="evenodd" d="M63.8957 90.7194C61.5022 90.4538 59.2655 90.1292 57.0204 90.0406C54.9109 92.1386 52.7505 94.3223 50.6184 96.579C52.6304 96.9261 54.7724 97.3238 57.0825 97.7524C59.3051 95.3804 61.6619 93.0056 63.8957 90.7194Z" fill="#1A1A1A"/>
<path fill-rule="evenodd" clip-rule="evenodd" d="M55.9805 90.0041C53.8893 89.8046 51.9607 89.6205 50.0037 89.4912C47.9451 91.4796 45.8766 93.5255 44.0878 95.4254C45.8031 95.7682 47.6399 96.1223 49.6689 96.3767C51.7332 94.1747 53.7876 92.095 55.979 90.0041H55.9805Z" fill="#1A1A1A"/>
<path fill-rule="evenodd" clip-rule="evenodd" d="M49.1235 89.4252C47.2485 89.2341 45.4216 89.1119 43.7854 88.9348C41.8935 90.7756 40.0313 92.674 38.1902 94.5078C39.7317 94.8689 41.4993 95.053 43.1595 95.2975C45.1009 93.3766 47.0239 91.4136 49.1235 89.4266V89.4252Z" fill="#1A1A1A"/>
<path fill-rule="evenodd" clip-rule="evenodd" d="M42.843 88.9644C41.18 88.8168 39.6314 88.6693 38.1634 88.533C36.5554 90.1967 34.8613 91.8703 33.1545 93.5003C34.5576 93.7364 36.0454 94.0947 37.4625 94.4109C39.2301 92.5743 40.9892 90.8305 42.843 88.9644Z" fill="#1A1A1A"/>
<path fill-rule="evenodd" clip-rule="evenodd" d="M37.2633 88.436C35.8419 88.3362 34.5717 88.1704 33.2704 88.1072C31.7204 89.5784 30.1633 91.1087 28.5992 92.6614C29.8002 92.8834 30.9305 93.1518 32.2107 93.3626C33.8807 91.7284 35.6144 90.0576 37.2633 88.4346V88.436Z" fill="#1A1A1A"/>
<path fill-rule="evenodd" clip-rule="evenodd" d="M32.5243 87.975C31.3007 87.8274 30.2269 87.6953 29.0853 87.5956C27.6031 89.0415 26.1124 90.4425 24.6515 91.9475C25.6546 92.1906 26.7341 92.3676 27.8546 92.6515C29.3834 91.0875 30.9772 89.5123 32.5257 87.975H32.5243Z" fill="#1A1A1A"/>
<path fill-rule="evenodd" clip-rule="evenodd" d="M28.6049 87.569C27.5734 87.3989 26.6917 87.1811 25.7762 87.0083C24.4367 88.3475 23.0548 89.7049 21.8101 90.9625C22.6182 91.2028 23.5395 91.4347 24.3901 91.7185C25.7776 90.3316 27.2315 88.9236 28.6049 87.569Z" fill="#1A1A1A"/>
<path fill-rule="evenodd" clip-rule="evenodd" d="M25.1926 86.8902C24.3901 86.7314 23.5169 86.6836 22.7906 86.4883C21.5218 87.7389 20.2445 88.9783 19.0732 90.1727C19.7274 90.3933 20.3844 90.6336 21.153 90.8402C22.4332 89.5867 23.8178 88.2883 25.194 86.8902H25.1926Z" fill="#1A1A1A"/>
<path fill-rule="evenodd" clip-rule="evenodd" d="M16.0679 87.6434C15.8206 87.4326 15.6129 87.1052 15.4363 86.8719C14.5928 87.7642 13.7493 88.5498 13.0456 89.3395C13.0329 89.7273 13.1685 90.0702 13.3395 90.4018C14.2636 89.487 15.1127 88.613 16.0665 87.6434H16.0679Z" fill="#1A1A1A"/>
<path fill-rule="evenodd" clip-rule="evenodd" d="M32.5187 80.3589C34.5364 79.9317 36.5187 79.5032 38.7949 79.0535C39.3304 78.7809 39.8349 78.6558 40.4792 78.4155C38.063 79.0057 35.8645 79.4736 33.7395 79.9753C33.2421 80.3111 32.9101 80.1566 32.5187 80.3589Z" fill="#1A1A1A"/>
<path fill-rule="evenodd" clip-rule="evenodd" d="M46.2552 78.1064C49.1122 77.8591 52.003 77.8661 55.1497 77.7228C55.7403 77.668 56.4072 77.6188 57.0967 77.4094C53.8102 77.7228 50.7992 77.6525 47.8942 77.8268C47.2104 78.0811 46.689 77.9898 46.2552 78.1078V78.1064Z" fill="#1A1A1A"/>
<path fill-rule="evenodd" clip-rule="evenodd" d="M103.523 84.0434C99.8789 83.8115 96.2632 83.6822 92.9979 83.4714C90.3812 86.0893 87.7955 88.7522 85.272 91.4628C88.5006 91.7874 91.9411 92.1007 95.3674 92.4984C98.069 89.5812 100.864 86.6865 103.521 84.0419L103.523 84.0434Z" fill="#1A1A1A"/>
<path fill-rule="evenodd" clip-rule="evenodd" d="M91.4098 83.3801C88.1487 83.3281 85.053 83.262 82.1466 83.137C79.7884 85.5567 77.1943 88.0903 74.9095 90.5058C77.6591 90.7756 80.6461 90.985 83.7305 91.2365C86.2286 88.599 88.8609 85.9333 91.4098 83.3815V83.3801Z" fill="#1A1A1A"/>
<path fill-rule="evenodd" clip-rule="evenodd" d="M80.7464 83.1257C77.8668 83.0555 75.161 83.0597 72.492 82.9965C70.2257 85.1534 67.965 87.4481 65.7693 89.8117C68.2758 89.948 70.8685 90.1292 73.5715 90.4454C75.8209 88.0411 78.3797 85.4963 80.7478 83.1243L80.7464 83.1257Z" fill="#1A1A1A"/>
<path fill-rule="evenodd" clip-rule="evenodd" d="M71.2486 82.9192C68.7068 82.8672 66.3373 82.9121 64.037 82.8376C61.8625 84.9216 59.7473 86.9984 57.6915 89.0598C59.8576 89.1554 62.1239 89.428 64.5513 89.6908C66.764 87.434 69.0233 85.1028 71.2486 82.9192Z" fill="#1A1A1A"/>
<path fill-rule="evenodd" clip-rule="evenodd" d="M62.9279 82.7856C60.6488 82.8292 58.665 82.7224 56.5866 82.7421C54.5379 84.7192 52.5456 86.6218 50.6155 88.5582C52.5329 88.731 54.5336 88.894 56.653 89.0261C58.7074 86.9281 60.7971 84.944 62.9279 82.7856Z" fill="#1A1A1A"/>
<path fill-rule="evenodd" clip-rule="evenodd" d="M55.6357 82.6718C53.6011 82.6494 51.7572 82.6423 49.9161 82.5763C48.0285 84.3974 46.203 86.1975 44.369 88.0341C46.0136 88.3516 47.7982 88.4317 49.6661 88.561C51.6696 86.5727 53.5502 84.6518 55.6371 82.6718H55.6357Z" fill="#1A1A1A"/>
<path fill-rule="evenodd" clip-rule="evenodd" d="M49.0571 82.5974C47.339 82.5974 45.5926 82.6747 44.1033 82.6339C42.3796 84.2457 40.6134 85.9713 38.8684 87.6238C40.3675 87.7123 41.9105 87.8374 43.5396 88.0299C45.3015 86.2046 47.2047 84.4157 49.0571 82.5974Z" fill="#1A1A1A"/>
<path fill-rule="evenodd" clip-rule="evenodd" d="M112.653 74.3334C108.82 74.3741 105.121 74.4289 101.665 74.5146C99.1428 77.0412 96.6278 79.4708 94.1438 81.9762C97.5433 82.0901 101.119 82.2601 104.71 82.4147C107.401 79.697 110.101 76.9414 112.653 74.3348V74.3334Z" fill="#1A1A1A"/>
<path fill-rule="evenodd" clip-rule="evenodd" d="M100.051 74.6285C96.6772 74.6398 93.4119 74.7873 90.3741 74.8871C87.9862 77.2071 85.5814 79.527 83.2656 81.8316C86.2201 81.8021 89.3865 81.8498 92.5769 81.9974C95.0156 79.4343 97.508 77.0328 100.051 74.6285Z" fill="#1A1A1A"/>
<path fill-rule="evenodd" clip-rule="evenodd" d="M88.8382 74.9124C85.8471 74.9714 82.9505 75.0894 80.2151 75.2117C78.0349 77.3068 75.8152 79.468 73.5927 81.7402C76.2137 81.7585 78.9618 81.8105 81.7962 81.854C84.1063 79.5158 86.5111 77.1522 88.8368 74.9124H88.8382Z" fill="#1A1A1A"/>
<path fill-rule="evenodd" clip-rule="evenodd" d="M78.959 75.2257C76.2377 75.3803 73.888 75.4281 71.4055 75.5686C69.2013 77.6159 67.2006 79.5818 65.0826 81.6278C67.4478 81.639 69.8541 81.6137 72.4313 81.6643C74.5139 79.4891 76.7379 77.3279 78.959 75.2257Z" fill="#1A1A1A"/>
<path fill-rule="evenodd" clip-rule="evenodd" d="M70.1324 75.6754C67.8717 75.719 65.6576 75.7822 63.4549 75.9115C61.4146 77.8774 59.4619 79.7435 57.5686 81.58C59.5425 81.6798 61.6661 81.6939 63.9777 81.6433C66.0222 79.5889 68.0681 77.6638 70.1324 75.6754Z" fill="#1A1A1A"/>
<path fill-rule="evenodd" clip-rule="evenodd" d="M62.3726 75.9452C60.2179 76.0927 58.3231 76.1742 56.5047 76.2473C54.5788 78.0207 52.6092 79.8095 50.8444 81.5435C52.6445 81.573 54.5265 81.632 56.5908 81.58C58.4856 79.7505 60.4044 77.8886 62.3726 75.9452Z" fill="#1A1A1A"/>
<path fill-rule="evenodd" clip-rule="evenodd" d="M55.3715 76.4609C53.4556 76.6197 51.76 76.7083 50.032 76.8108C48.2701 78.4774 46.4276 80.1959 44.725 81.9159C46.3513 81.7908 48.0624 81.7684 49.8483 81.6953C51.6187 80.0315 53.3793 78.3692 55.3715 76.4623V76.4609Z" fill="#1A1A1A"/>
<path fill-rule="evenodd" clip-rule="evenodd" d="M108.176 66.5248C104.667 66.7243 101.347 66.8606 98.1368 67.122C95.7574 69.39 93.46 71.5849 91.1371 73.9484C94.3049 73.7348 97.4727 73.7123 100.906 73.6126C103.239 71.2448 105.675 68.8813 108.174 66.5248H108.176Z" fill="#1A1A1A"/>
<path fill-rule="evenodd" clip-rule="evenodd" d="M96.5303 67.3481C93.3879 67.4915 90.4999 67.7613 87.5864 68.0676C85.3723 70.1037 83.2275 72.1792 81.0318 74.2926C83.8619 74.0565 86.6171 74.0495 89.6775 73.954C91.9834 71.7 94.3006 69.4068 96.5303 67.3481Z" fill="#1A1A1A"/>
<path fill-rule="evenodd" clip-rule="evenodd" d="M86.2413 68.1815C83.4748 68.3951 80.9103 68.6677 78.3133 68.9488C76.2109 70.8514 74.1805 72.8327 72.0653 74.8197C74.569 74.5653 77.0275 74.5133 79.7771 74.311C81.8386 72.3198 84.03 70.2654 86.2413 68.1815Z" fill="#1A1A1A"/>
<path fill-rule="evenodd" clip-rule="evenodd" d="M77.0487 69.04C74.6015 69.2578 72.297 69.3899 70.0095 69.6077C68.0342 71.4514 66.1168 73.2739 64.1571 75.1428C66.3585 75.029 68.5301 74.932 70.9674 74.8224C73.0501 72.8608 74.9802 70.9539 77.0487 69.04Z" fill="#1A1A1A"/>
<path fill-rule="evenodd" clip-rule="evenodd" d="M68.8721 69.7455C66.8064 69.8818 64.7491 70.0771 62.6326 70.3764C60.7746 72.0725 58.9137 73.8402 57.1066 75.5321C59.031 75.4393 61.0261 75.2482 63.0776 75.1962C65.0769 73.3259 66.9999 71.5526 68.8721 69.7455Z" fill="#1A1A1A"/>
<path fill-rule="evenodd" clip-rule="evenodd" d="M56.3097 71.6958C54.4926 71.9206 52.7519 72.1272 51.1539 72.2677C49.512 73.7755 47.76 75.3732 46.0701 76.9597C47.6766 76.8163 49.3312 76.7784 50.9815 76.6758C52.6587 75.0303 54.4714 73.368 56.3097 71.6972V71.6958Z" fill="#1A1A1A"/>
<path fill-rule="evenodd" clip-rule="evenodd" d="M50.1733 72.3521C48.6162 72.4884 47.1312 72.5881 45.6901 72.7694C44.181 74.2224 42.6593 75.5798 41.2082 76.999C42.4827 76.9808 43.938 76.8768 45.3269 76.8332C46.8783 75.3873 48.5611 73.812 50.1733 72.3521Z" fill="#1A1A1A"/>
<path fill-rule="evenodd" clip-rule="evenodd" d="M104.381 60.0931C101.224 60.4655 98.1807 60.8238 95.1132 61.1892C92.9401 63.2099 90.8193 65.1687 88.5869 67.2231C91.5964 66.8325 94.4209 66.6624 97.641 66.3153C99.8409 64.1879 102.127 62.1841 104.381 60.0931Z" fill="#1A1A1A"/>
<path fill-rule="evenodd" clip-rule="evenodd" d="M93.703 61.3367C90.8927 61.6431 88.0696 62.0407 85.3864 62.3766C83.3956 64.2539 81.3214 66.1495 79.243 68.0929C81.8711 67.802 84.4087 67.5983 87.2445 67.3622C89.4726 65.2755 91.6005 63.3349 93.703 61.3353V61.3367Z" fill="#1A1A1A"/>
<path fill-rule="evenodd" clip-rule="evenodd" d="M84.1021 62.527C81.6068 62.8108 79.1596 63.1467 76.6503 63.5233C74.7386 65.3163 72.9117 66.9576 70.9152 68.7941C73.1999 68.5763 75.5326 68.3923 77.9869 68.2293C80.0258 66.2746 82.1339 64.3341 84.1021 62.527Z" fill="#1A1A1A"/>
<path fill-rule="evenodd" clip-rule="evenodd" d="M75.5581 63.6932C73.3426 64.0319 71.1285 64.3242 69.0261 64.608C67.1992 66.283 65.2889 67.9636 63.4733 69.6133C65.5587 69.3997 67.6117 69.1749 69.7763 68.9304C71.7785 67.1191 73.6732 65.4048 75.5581 63.6932Z" fill="#1A1A1A"/>
<path fill-rule="evenodd" clip-rule="evenodd" d="M62.2496 66.0498C60.3436 66.3561 58.5788 66.5669 56.9215 66.7805C55.209 68.3473 53.481 69.8902 51.8575 71.4682C53.488 71.2982 55.1567 71.1296 57.0077 70.8935C58.73 69.293 60.4453 67.722 62.2496 66.0512V66.0498Z" fill="#1A1A1A"/>
<path fill-rule="evenodd" clip-rule="evenodd" d="M55.6922 67.2512C54.0052 67.476 52.5018 67.7121 50.9688 67.9959C49.375 69.4152 47.8109 70.8204 46.1365 72.3323C47.5749 72.1441 49.1306 72.026 50.6862 71.8967C52.3153 70.3398 53.9713 68.7983 55.6936 67.2498L55.6922 67.2512Z" fill="#1A1A1A"/>
<path fill-rule="evenodd" clip-rule="evenodd" d="M111.153 52.6274C107.825 53.1487 104.683 53.6138 101.662 54.1352C99.4918 55.9394 97.4331 57.7943 95.2063 59.8262C98.2512 59.3611 101.326 59.0294 104.467 58.6233C106.706 56.5549 108.917 54.5918 111.151 52.626L111.153 52.6274Z" fill="#1A1A1A"/>
<path fill-rule="evenodd" clip-rule="evenodd" d="M100.228 54.2855C97.2537 54.797 94.4137 55.1961 91.6274 55.6781C89.6973 57.4669 87.6754 59.1925 85.6266 61.067C88.3296 60.6763 91.1201 60.3335 93.9418 59.9049C96.0089 58.0276 98.0746 56.198 100.228 54.2855Z" fill="#1A1A1A"/>
<path fill-rule="evenodd" clip-rule="evenodd" d="M107.931 47.6375C104.906 48.17 102.007 48.7546 99.1725 49.2829C97.1336 51.0858 95.1399 52.8156 93.1435 54.551C95.8181 54.0929 98.7217 53.6503 101.768 53.1332C103.78 51.3444 105.88 49.4951 107.933 47.6375H107.931Z" fill="#1A1A1A"/>
<path fill-rule="evenodd" clip-rule="evenodd" d="M140.836 49.5303C136.484 50.1303 132.431 50.6882 128.577 51.0886C126.013 53.2962 123.664 55.5614 121.392 57.686C125.134 57.3727 129.118 56.923 133.343 56.4691C135.746 54.1772 138.246 51.8545 140.834 49.5317L140.836 49.5303Z" fill="#1A1A1A"/>
<path fill-rule="evenodd" clip-rule="evenodd" d="M23.3982 92.3635C22.4741 92.1092 21.6278 91.8394 20.8196 91.6216C19.5649 92.861 18.2678 94.1256 17.0386 95.5168C17.6631 95.8414 18.3992 96.232 19.1763 96.5861C20.5186 95.2329 21.9627 93.7533 23.3982 92.3635Z" fill="#1A1A1A"/>
<path fill-rule="evenodd" clip-rule="evenodd" d="M26.8599 93.2375C25.7762 92.9831 24.7716 92.7063 23.8065 92.4562C22.3328 93.9457 20.9256 95.3776 19.5847 96.7378C20.3646 97.165 21.2237 97.5641 22.1619 97.973C23.6878 96.3907 25.2788 94.7719 26.8599 93.2375Z" fill="#1A1A1A"/>
<path fill-rule="evenodd" clip-rule="evenodd" d="M30.8825 94.1495C29.6391 93.9289 28.5088 93.6226 27.4194 93.312C25.7663 94.9828 24.1753 96.565 22.6889 98.1108C23.7062 98.4396 24.7292 98.826 25.9429 99.1323C27.5748 97.4658 29.2718 95.7908 30.8839 94.1495H30.8825Z" fill="#1A1A1A"/>
<path fill-rule="evenodd" clip-rule="evenodd" d="M36.0185 95.1739C34.5646 94.8605 33.1531 94.5289 31.7515 94.3069C30.1026 95.9411 28.3745 97.7735 26.7059 99.5033C27.9676 99.8462 29.1983 100.348 30.4713 100.845C32.2827 98.8977 34.1958 97.047 36.0185 95.1725V95.1739Z" fill="#1A1A1A"/>
<path fill-rule="evenodd" clip-rule="evenodd" d="M41.5982 96.0956C39.8984 95.8413 38.2072 95.5869 36.7829 95.2623C34.9235 97.1059 33.0118 98.9805 31.1637 100.913C32.6006 101.381 34.1167 101.787 35.6822 102.229C37.5558 100.223 39.5282 98.195 41.5982 96.0956Z" fill="#1A1A1A"/>
<path fill-rule="evenodd" clip-rule="evenodd" d="M47.9621 97.3097C46.0051 97.0076 44.2079 96.6675 42.4926 96.3064C40.3506 98.4788 38.3442 100.566 36.4707 102.543C38.0447 102.992 39.7487 103.553 41.4979 104.08C43.695 101.76 45.7268 99.6283 47.9621 97.3083V97.3097Z" fill="#1A1A1A"/>
<path fill-rule="evenodd" clip-rule="evenodd" d="M55.1468 98.8175C52.9215 98.4381 50.8543 98.0095 48.8381 97.6006C46.6819 99.8911 44.5371 102.096 42.3781 104.375C44.2263 104.976 46.2001 105.562 48.222 106.153C50.5082 103.663 52.889 101.167 55.1468 98.8175Z" fill="#1A1A1A"/>
<path fill-rule="evenodd" clip-rule="evenodd" d="M64.2362 100.134C61.6817 99.6255 59.2359 99.2447 56.961 98.9131C54.6269 101.237 52.2588 103.781 49.9388 106.264C52.0907 106.777 54.4135 107.329 56.7307 108.093C59.2825 105.294 61.7113 102.694 64.2376 100.134H64.2362Z" fill="#1A1A1A"/>
<path fill-rule="evenodd" clip-rule="evenodd" d="M73.5828 101.787C70.7047 101.226 67.8703 100.592 65.3835 100.102C62.8346 102.776 60.2546 105.412 57.8187 108.145C60.273 108.894 62.8699 109.712 65.7043 110.381C68.3012 107.496 70.9194 104.697 73.5828 101.788V101.787Z" fill="#1A1A1A"/>
<path fill-rule="evenodd" clip-rule="evenodd" d="M84.6927 103.768C81.3596 103.189 78.0533 102.687 75.1978 101.865C72.509 104.828 69.7608 107.815 67.2105 110.724C70.0448 111.543 73.0219 112.376 76.1741 113.169C79.0565 109.938 81.816 106.881 84.6941 103.768H84.6927Z" fill="#1A1A1A"/>
<path fill-rule="evenodd" clip-rule="evenodd" d="M97.2805 106.427C93.3639 105.619 89.7623 104.896 86.3769 104.129C83.4705 107.319 80.5344 110.506 77.6662 113.829C81.1985 114.806 84.4567 116.024 88.1954 116.978C91.284 113.43 94.3374 109.897 97.2805 106.427Z" fill="#1A1A1A"/>
<path fill-rule="evenodd" clip-rule="evenodd" d="M111.83 109.753C107.249 108.856 103.189 108.009 99.0961 107.119C96.0414 110.623 92.9937 114.189 89.9417 117.675C93.7637 118.937 97.8118 120.172 102.059 121.437C105.419 117.346 108.612 113.5 111.83 109.753Z" fill="#1A1A1A"/>
<path fill-rule="evenodd" clip-rule="evenodd" d="M263.262 89.5025C260.378 87.2008 257.555 84.878 254.975 82.7576C250.807 85.1141 246.657 87.309 242.467 89.7976C244.805 92.2356 247.121 94.7917 249.92 97.4067C254.438 94.7397 258.954 92.0881 263.261 89.5025H263.262Z" fill="#1A1A1A"/>
<path fill-rule="evenodd" clip-rule="evenodd" d="M121.805 84.7782C120.658 83.6245 119.537 82.551 118.371 81.632C116.748 82.7674 115.057 83.9772 113.387 85.1281C114.424 86.2199 115.403 87.3933 116.455 88.7127C118.253 87.3708 120.046 86.0387 121.806 84.7782H121.805Z" fill="#1A1A1A"/>
<path fill-rule="evenodd" clip-rule="evenodd" d="M76.4016 42.1573C75.9551 41.4772 75.5454 40.7689 75.1681 40.0593C73.7071 41.2664 72.1473 42.5732 70.6156 43.8463C70.8544 44.6627 71.1921 45.4089 71.5736 46.2085C73.1759 44.8637 74.805 43.4964 76.4002 42.1573H76.4016Z" fill="#1A1A1A"/>
<path fill-rule="evenodd" clip-rule="evenodd" d="M313.58 160.143C309.975 157.326 306.576 154.626 303.274 152.25C298.974 153.571 294.755 155.135 290.328 156.627C293.539 159.224 296.698 162.03 299.945 165.054C304.562 163.32 309.286 161.758 313.581 160.142L313.58 160.143Z" fill="#1A1A1A"/>
<path fill-rule="evenodd" clip-rule="evenodd" d="M86.6906 51.2966C86.3359 50.9073 86.0562 50.5279 85.7778 50.1626C84.8283 50.8511 83.8732 51.527 82.9505 52.2015C83.1639 52.6189 83.3843 53.1093 83.6316 53.5196C84.6531 52.7819 85.6365 52.0498 86.6906 51.2952V51.2966Z" fill="#1A1A1A"/>
<path fill-rule="evenodd" clip-rule="evenodd" d="M119.408 33.4886C118.552 33.1246 117.741 32.8028 116.939 32.5063C115.728 33.3284 114.518 34.1785 113.281 35.075C113.956 35.4811 114.698 35.8423 115.541 36.3088C116.802 35.3266 118.106 34.409 119.408 33.49V33.4886Z" fill="#1A1A1A"/>
<path fill-rule="evenodd" clip-rule="evenodd" d="M301.516 66.8352C298.122 65.4413 294.967 64.2244 291.969 63.0778C288.092 64.6825 284.421 66.2198 280.908 67.8498C283.617 69.2002 286.47 70.5829 289.661 72.2832C293.759 70.3763 297.741 68.4849 301.516 66.8352Z" fill="#1A1A1A"/>
<path fill-rule="evenodd" clip-rule="evenodd" d="M105.529 31.3162C105.012 31.0731 104.625 30.7541 104.215 30.5138C103.229 31.1574 102.289 31.8839 101.34 32.5851C101.687 32.8928 102.008 33.2567 102.428 33.5378C103.373 32.8169 104.45 32.0539 105.529 31.3162Z" fill="#1A1A1A"/>
<path fill-rule="evenodd" clip-rule="evenodd" d="M83.9537 26.0074C83.6796 25.8078 83.3801 25.6547 83.1102 25.4706C82.3995 26.02 81.621 26.5877 80.9385 27.1118C81.1745 27.3254 81.3794 27.5418 81.5899 27.7892C82.3684 27.2032 83.1766 26.606 83.9537 26.0074Z" fill="#1A1A1A"/>
<path fill-rule="evenodd" clip-rule="evenodd" d="M31.8601 80.1157C31.7442 79.8206 31.5916 79.5255 31.5125 79.2417C30.9445 79.6295 30.4147 80.0722 29.8467 80.4769C29.8905 80.8197 29.9696 81.1443 30.0487 81.4689C30.6888 81.0151 31.2582 80.5654 31.8601 80.1157Z" fill="#1A1A1A"/>
<path fill-rule="evenodd" clip-rule="evenodd" d="M316.186 112.579C313.77 111.425 311.815 110.336 309.752 109.293C306.723 110.149 303.822 110.923 300.931 111.761C302.704 112.83 304.712 114.076 306.837 115.257C310.003 114.397 313.105 113.461 316.186 112.579Z" fill="#1A1A1A"/>
<path fill-rule="evenodd" clip-rule="evenodd" d="M138.384 27.9072C137.536 27.657 136.67 27.4856 135.937 27.2299C134.757 27.9985 133.511 28.7967 132.395 29.5372C133.105 29.8491 133.771 30.1147 134.557 30.407C135.731 29.6018 137.104 28.7137 138.384 27.9072Z" fill="#1A1A1A"/>
<path fill-rule="evenodd" clip-rule="evenodd" d="M107.144 8.90615C106.606 8.80639 106.068 8.72067 105.539 8.69397C104.652 9.25605 103.807 9.89822 102.958 10.5137C103.461 10.6008 103.967 10.6964 104.474 10.8074C105.381 10.1441 106.263 9.5132 107.144 8.90615Z" fill="#1A1A1A"/>
<path fill-rule="evenodd" clip-rule="evenodd" d="M93.7411 32.1831C93.2523 32.0286 92.7704 31.919 92.3197 31.7812C91.561 32.3265 90.7019 32.9251 89.905 33.4647C90.3586 33.6249 90.7768 33.7738 91.2332 33.9368C92.0922 33.341 92.8849 32.7803 93.7425 32.1831H93.7411Z" fill="#1A1A1A"/>
<path fill-rule="evenodd" clip-rule="evenodd" d="M11.2823 95.1598C11.1438 94.935 11.0407 94.7579 10.9008 94.5331C10.4529 94.8394 10.0064 95.1486 9.59524 95.4366C9.69556 95.6685 9.76055 95.8863 9.90043 96.0746C10.3497 95.7837 10.8358 95.4703 11.2823 95.1598Z" fill="#1A1A1A"/>
<path fill-rule="evenodd" clip-rule="evenodd" d="M82.2215 44.7204C81.7326 44.5602 81.2748 44.3761 80.8255 44.2581C80.1105 44.7428 79.325 45.2628 78.5704 45.7462C79.024 45.9063 79.4775 46.075 79.9 46.2661C80.6503 45.756 81.4373 45.2431 82.2215 44.7204Z" fill="#1A1A1A"/>
<path fill-rule="evenodd" clip-rule="evenodd" d="M158.28 51.426C157.219 51.1492 156.201 50.8667 155.224 50.6053C153.936 51.2981 152.683 51.9571 151.325 52.6822C152.33 52.9113 153.316 53.2246 154.301 53.5155C155.581 52.8017 156.983 52.0934 158.28 51.426Z" fill="#1A1A1A"/>
<path fill-rule="evenodd" clip-rule="evenodd" d="M7.85591 90.302C7.72451 90.0729 7.55355 89.8748 7.42073 89.6978C6.98131 89.9774 6.5758 90.2697 6.16887 90.5971C6.30027 90.7924 6.4345 90.9962 6.56591 91.2238C7.00957 90.9104 7.45182 90.5971 7.85591 90.302Z" fill="#1A1A1A"/>
<path fill-rule="evenodd" clip-rule="evenodd" d="M70.3839 55.6935C69.9304 55.5347 69.4726 55.3253 69.0558 55.1581C68.3535 55.626 67.7205 56.0546 67.0508 56.5113C67.4323 56.6883 67.8166 56.8879 68.2377 57.1015C68.9413 56.6153 69.6478 56.1909 70.3839 55.6921V55.6935Z" fill="#1A1A1A"/>
<path fill-rule="evenodd" clip-rule="evenodd" d="M76.1402 37.0929C75.7432 36.9903 75.3546 36.951 74.9604 36.8779C74.3825 37.2714 73.7764 37.7112 73.1942 38.0808C73.5192 38.151 73.9148 38.2522 74.2455 38.3646C74.8869 37.922 75.4959 37.4948 76.1402 37.0943V37.0929Z" fill="#1A1A1A"/>
<path fill-rule="evenodd" clip-rule="evenodd" d="M367.532 138.469C364.308 137.5 360.899 136.349 357.453 135.35C354.261 136.033 350.813 136.519 347.572 137.116C350.671 138.063 354.026 139.173 357.126 140.274C360.748 139.665 364.098 139.105 367.532 138.471V138.469Z" fill="#1A1A1A"/>
<path fill-rule="evenodd" clip-rule="evenodd" d="M119.741 14.6997C119.03 14.7278 118.39 14.7348 117.75 14.7405C116.999 15.2168 116.217 15.7143 115.408 16.2468C116.046 16.2173 116.629 16.2707 117.272 16.2651C118.08 15.7339 118.89 15.1971 119.739 14.6997H119.741Z" fill="#1A1A1A"/>
<path fill-rule="evenodd" clip-rule="evenodd" d="M16.7023 93.1096C16.4847 92.948 16.2671 92.7808 16.1244 92.6262C15.7189 92.8848 15.2752 93.1799 14.905 93.4159C15.0477 93.5888 15.2272 93.7363 15.4066 93.9218C15.8503 93.6225 16.2586 93.3724 16.7023 93.111V93.1096Z" fill="#1A1A1A"/>
<path fill-rule="evenodd" clip-rule="evenodd" d="M208.291 75.8861C206.685 75.4954 204.966 75.2622 203.328 74.9081C201.715 75.4688 200.247 75.9592 198.804 76.5353C200.29 76.8079 201.9 77.1915 203.58 77.5751C205.15 76.9962 206.762 76.4397 208.289 75.8861H208.291Z" fill="#1A1A1A"/>
<path fill-rule="evenodd" clip-rule="evenodd" d="M202.811 104.999C201.363 104.095 199.93 103.196 198.489 102.413C196.471 103.188 194.414 104.098 192.343 104.977C193.684 105.869 195.016 106.739 196.363 107.753C198.608 106.736 200.734 105.883 202.811 104.998V104.999Z" fill="#1A1A1A"/>
<path fill-rule="evenodd" clip-rule="evenodd" d="M12.1272 100.477C11.9887 100.079 11.8884 99.6733 11.7867 99.3262C11.2201 99.7323 10.614 100.182 10.0064 100.65C10.0672 101.056 10.1293 101.517 10.2254 101.933C10.8358 101.454 11.4815 100.966 12.1272 100.476V100.477Z" fill="#1A1A1A"/>
<path fill-rule="evenodd" clip-rule="evenodd" d="M167.744 69.0484C166.438 68.3037 165.234 67.639 164.117 66.9912C162.398 67.9425 160.608 68.9529 158.819 69.9815C159.944 70.6714 160.949 71.5005 162.202 72.2129C164.104 71.1464 165.919 70.0855 167.744 69.0484Z" fill="#1A1A1A"/>
</g>
<defs>
<clipPath id="clip0_303_9325">
<rect width="367.532" height="200" fill="white"/>
</clipPath>
</defs>
</svg>
