<svg width="46" height="20" viewBox="0 0 46 20" fill="none" xmlns="http://www.w3.org/2000/svg">
<g clip-path="url(#clip0_139_8495)">
<path d="M10 20.0111C15.5228 20.0111 20 15.5339 20 10.0111C20 4.48822 15.5228 0.0111237 10 0.0111237C4.47715 0.0111237 0 4.48822 0 10.0111C0 15.5339 4.47715 20.0111 10 20.0111Z" fill="#666666"/>
<path d="M0 30C5.52285 30 10 25.5228 10 20C10 14.4772 5.52285 10 0 10C-5.52285 10 -10 14.4772 -10 20C-10 25.5228 -5.52285 30 0 30Z" fill="#141414"/>
<path d="M20 30C25.5228 30 30 25.5228 30 20C30 14.4772 25.5228 10 20 10C14.4772 10 10 14.4772 10 20C10 25.5228 14.4772 30 20 30Z" fill="#141414"/>
<path d="M0 10C5.52285 10 10 5.52285 10 0C10 -5.52285 5.52285 -10 0 -10C-5.52285 -10 -10 -5.52285 -10 0C-10 5.52285 -5.52285 10 0 10Z" fill="#141414"/>
<path d="M20 10C25.5228 10 30 5.52285 30 0C30 -5.52285 25.5228 -10 20 -10C14.4772 -10 10 -5.52285 10 0C10 5.52285 14.4772 10 20 10Z" fill="#141414"/>
</g>
<g clip-path="url(#clip1_139_8495)">
<path d="M30 16.0066C33.3137 16.0066 36 13.3203 36 10.0066C36 6.69293 33.3137 4.00667 30 4.00667C26.6863 4.00667 24 6.69293 24 10.0066C24 13.3203 26.6863 16.0066 30 16.0066Z" fill="#333333"/>
<path d="M24 22C27.3137 22 30 19.3137 30 16C30 12.6863 27.3137 10 24 10C20.6863 10 18 12.6863 18 16C18 19.3137 20.6863 22 24 22Z" fill="#141414"/>
<path d="M36 22C39.3137 22 42 19.3137 42 16C42 12.6863 39.3137 10 36 10C32.6863 10 30 12.6863 30 16C30 19.3137 32.6863 22 36 22Z" fill="#141414"/>
<path d="M24 10C27.3137 10 30 7.31371 30 4C30 0.686292 27.3137 -2 24 -2C20.6863 -2 18 0.686292 18 4C18 7.31371 20.6863 10 24 10Z" fill="#141414"/>
<path d="M36 10C39.3137 10 42 7.31371 42 4C42 0.686292 39.3137 -2 36 -2C32.6863 -2 30 0.686292 30 4C30 7.31371 32.6863 10 36 10Z" fill="#141414"/>
</g>
<g clip-path="url(#clip2_139_8495)">
<path d="M42.8 12.8031C44.3464 12.8031 45.6 11.5495 45.6 10.0031C45.6 8.4567 44.3464 7.20311 42.8 7.20311C41.2536 7.20311 40 8.4567 40 10.0031C40 11.5495 41.2536 12.8031 42.8 12.8031Z" fill="#333333"/>
<path d="M40.0002 15.6C41.5466 15.6 42.8002 14.3464 42.8002 12.8C42.8002 11.2536 41.5466 10 40.0002 10C38.4538 10 37.2002 11.2536 37.2002 12.8C37.2002 14.3464 38.4538 15.6 40.0002 15.6Z" fill="#141414"/>
<path d="M45.5998 15.6C47.1462 15.6 48.3998 14.3464 48.3998 12.8C48.3998 11.2536 47.1462 10 45.5998 10C44.0534 10 42.7998 11.2536 42.7998 12.8C42.7998 14.3464 44.0534 15.6 45.5998 15.6Z" fill="#141414"/>
<path d="M40.0002 9.99999C41.5466 9.99999 42.8002 8.74639 42.8002 7.19999C42.8002 5.6536 41.5466 4.39999 40.0002 4.39999C38.4538 4.39999 37.2002 5.6536 37.2002 7.19999C37.2002 8.74639 38.4538 9.99999 40.0002 9.99999Z" fill="#141414"/>
<path d="M45.5998 9.99999C47.1462 9.99999 48.3998 8.74639 48.3998 7.19999C48.3998 5.6536 47.1462 4.39999 45.5998 4.39999C44.0534 4.39999 42.7998 5.6536 42.7998 7.19999C42.7998 8.74639 44.0534 9.99999 45.5998 9.99999Z" fill="#141414"/>
</g>
<defs>
<clipPath id="clip0_139_8495">
<rect width="20" height="20" fill="white"/>
</clipPath>
<clipPath id="clip1_139_8495">
<rect width="12" height="12" fill="white" transform="translate(24 4)"/>
</clipPath>
<clipPath id="clip2_139_8495">
<rect width="5.6" height="5.6" fill="white" transform="translate(40 7.2)"/>
</clipPath>
</defs>
</svg>
