<svg width="48" height="48" viewBox="0 0 48 48" fill="none" xmlns="http://www.w3.org/2000/svg">
<rect x="0.5" y="0.5" width="47" height="47" rx="23.5" stroke="url(#paint0_linear_139_8140)"/>
<rect x="0.5" y="0.5" width="47" height="47" rx="23.5" stroke="url(#paint1_linear_139_8140)"/>
<rect x="6.5" y="6.5" width="35" height="35" rx="17.5" stroke="url(#paint2_linear_139_8140)"/>
<rect x="6.5" y="6.5" width="35" height="35" rx="17.5" stroke="url(#paint3_linear_139_8140)"/>
<path fill-rule="evenodd" clip-rule="evenodd" d="M15 16.75C15 16.3358 15.3358 16 15.75 16H26.25C26.6642 16 27 16.3358 27 16.75C27 17.1642 26.6642 17.5 26.25 17.5H26V31.25C26 31.6642 25.6642 32 25.25 32H23.75C23.3358 32 23 31.6642 23 31.25V28.75C23 28.3358 22.6642 28 22.25 28H19.75C19.3358 28 19 28.3358 19 28.75V31.25C19 31.6642 18.6642 32 18.25 32H15.75C15.3358 32 15 31.6642 15 31.25C15 30.8358 15.3358 30.5 15.75 30.5H16V17.5H15.75C15.3358 17.5 15 17.1642 15 16.75ZM18 19.5C18 19.2239 18.2239 19 18.5 19H19.5C19.7761 19 20 19.2239 20 19.5V20.5C20 20.7761 19.7761 21 19.5 21H18.5C18.2239 21 18 20.7761 18 20.5V19.5ZM18.5 23C18.2239 23 18 23.2239 18 23.5V24.5C18 24.7761 18.2239 25 18.5 25H19.5C19.7761 25 20 24.7761 20 24.5V23.5C20 23.2239 19.7761 23 19.5 23H18.5ZM22 19.5C22 19.2239 22.2239 19 22.5 19H23.5C23.7761 19 24 19.2239 24 19.5V20.5C24 20.7761 23.7761 21 23.5 21H22.5C22.2239 21 22 20.7761 22 20.5V19.5ZM22.5 23C22.2239 23 22 23.2239 22 23.5V24.5C22 24.7761 22.2239 25 22.5 25H23.5C23.7761 25 24 24.7761 24 24.5V23.5C24 23.2239 23.7761 23 23.5 23H22.5Z" fill="#A685FA"/>
<path fill-rule="evenodd" clip-rule="evenodd" d="M28.25 20C27.8358 20 27.5 20.3358 27.5 20.75V31C27.5 31.5523 27.9477 32 28.5 32H32.25C32.6642 32 33 31.6642 33 31.25C33 30.8358 32.6642 30.5 32.25 30.5H32V21.5H32.25C32.6642 21.5 33 21.1642 33 20.75C33 20.3358 32.6642 20 32.25 20H28.25ZM28.75 23.5C28.75 23.2239 28.9739 23 29.25 23H30.25C30.5261 23 30.75 23.2239 30.75 23.5V24.5C30.75 24.7761 30.5261 25 30.25 25H29.25C28.9739 25 28.75 24.7761 28.75 24.5V23.5ZM29.25 27C28.9739 27 28.75 27.2239 28.75 27.5V28.5C28.75 28.7761 28.9739 29 29.25 29H30.25C30.5261 29 30.75 28.7761 30.75 28.5V27.5C30.75 27.2239 30.5261 27 30.25 27H29.25Z" fill="#A685FA"/>
<defs>
<linearGradient id="paint0_linear_139_8140" x1="3.95122" y1="50.6341" x2="50.1951" y2="-3.21951" gradientUnits="userSpaceOnUse">
<stop stop-color="#A685FA"/>
<stop offset="0.323723" stop-color="#A685FA" stop-opacity="0"/>
</linearGradient>
<linearGradient id="paint1_linear_139_8140" x1="47.8537" y1="-6.14634" x2="3.95122" y2="48" gradientUnits="userSpaceOnUse">
<stop stop-color="#A685FA"/>
<stop offset="0.576615" stop-color="#A685FA" stop-opacity="0"/>
</linearGradient>
<linearGradient id="paint2_linear_139_8140" x1="2.08064" y1="8.03226" x2="41.8548" y2="42" gradientUnits="userSpaceOnUse">
<stop stop-color="#A685FA"/>
<stop offset="0.323723" stop-color="#A685FA" stop-opacity="0"/>
</linearGradient>
<linearGradient id="paint3_linear_139_8140" x1="49.1129" y1="50.129" x2="7.30645" y2="20.5161" gradientUnits="userSpaceOnUse">
<stop stop-color="#A685FA"/>
<stop offset="0.576615" stop-color="#A685FA" stop-opacity="0"/>
</linearGradient>
</defs>
</svg>
