<svg width="48" height="48" viewBox="0 0 48 48" fill="none" xmlns="http://www.w3.org/2000/svg">
<rect x="0.5" y="0.5" width="47" height="47" rx="23.5" stroke="url(#paint0_linear_139_8148)"/>
<rect x="0.5" y="0.5" width="47" height="47" rx="23.5" stroke="url(#paint1_linear_139_8148)"/>
<rect x="6.5" y="6.5" width="35" height="35" rx="17.5" stroke="url(#paint2_linear_139_8148)"/>
<rect x="6.5" y="6.5" width="35" height="35" rx="17.5" stroke="url(#paint3_linear_139_8148)"/>
<path d="M24 15.875C24.3452 15.875 24.625 16.1548 24.625 16.5V18.375C24.625 18.7202 24.3452 19 24 19C23.6548 19 23.375 18.7202 23.375 18.375V16.5C23.375 16.1548 23.6548 15.875 24 15.875Z" fill="#A685FA"/>
<path d="M20.25 24C20.25 21.9289 21.9289 20.25 24 20.25C26.0711 20.25 27.75 21.9289 27.75 24C27.75 26.0711 26.0711 27.75 24 27.75C21.9289 27.75 20.25 26.0711 20.25 24Z" fill="#A685FA"/>
<path d="M29.7453 19.1386C29.9894 18.8945 29.9894 18.4988 29.7453 18.2547C29.5012 18.0107 29.1055 18.0107 28.8614 18.2547L27.5356 19.5806C27.2915 19.8246 27.2915 20.2204 27.5356 20.4644C27.7797 20.7085 28.1754 20.7085 28.4195 20.4644L29.7453 19.1386Z" fill="#A685FA"/>
<path d="M32.125 24C32.125 24.3452 31.8452 24.625 31.5 24.625H29.625C29.2798 24.625 29 24.3452 29 24C29 23.6548 29.2798 23.375 29.625 23.375H31.5C31.8452 23.375 32.125 23.6548 32.125 24Z" fill="#A685FA"/>
<path d="M28.8613 29.7452C29.1054 29.9893 29.5011 29.9893 29.7452 29.7452C29.9893 29.5011 29.9893 29.1054 29.7452 28.8613L28.4194 27.5355C28.1753 27.2914 27.7796 27.2914 27.5355 27.5355C27.2914 27.7796 27.2914 28.1753 27.5355 28.4194L28.8613 29.7452Z" fill="#A685FA"/>
<path d="M24 29C24.3452 29 24.625 29.2798 24.625 29.625V31.5C24.625 31.8452 24.3452 32.125 24 32.125C23.6548 32.125 23.375 31.8452 23.375 31.5V29.625C23.375 29.2798 23.6548 29 24 29Z" fill="#A685FA"/>
<path d="M20.4646 28.4194C20.7087 28.1753 20.7087 27.7796 20.4646 27.5355C20.2205 27.2914 19.8248 27.2914 19.5807 27.5355L18.2549 28.8613C18.0108 29.1054 18.0108 29.5011 18.2549 29.7452C18.499 29.9893 18.8947 29.9893 19.1388 29.7452L20.4646 28.4194Z" fill="#A685FA"/>
<path d="M19 24C19 24.3452 18.7202 24.625 18.375 24.625H16.5C16.1548 24.625 15.875 24.3452 15.875 24C15.875 23.6548 16.1548 23.375 16.5 23.375H18.375C18.7202 23.375 19 23.6548 19 24Z" fill="#A685FA"/>
<path d="M19.5806 20.4644C19.8247 20.7085 20.2204 20.7085 20.4645 20.4644C20.7086 20.2204 20.7086 19.8246 20.4645 19.5805L19.1387 18.2547C18.8946 18.0106 18.4989 18.0106 18.2548 18.2547C18.0107 18.4988 18.0107 18.8945 18.2548 19.1386L19.5806 20.4644Z" fill="#A685FA"/>
<defs>
<linearGradient id="paint0_linear_139_8148" x1="3.95122" y1="50.6341" x2="50.1951" y2="-3.21951" gradientUnits="userSpaceOnUse">
<stop stop-color="#A685FA"/>
<stop offset="0.323723" stop-color="#A685FA" stop-opacity="0"/>
</linearGradient>
<linearGradient id="paint1_linear_139_8148" x1="47.8537" y1="-6.14634" x2="3.95122" y2="48" gradientUnits="userSpaceOnUse">
<stop stop-color="#A685FA"/>
<stop offset="0.576615" stop-color="#A685FA" stop-opacity="0"/>
</linearGradient>
<linearGradient id="paint2_linear_139_8148" x1="2.08064" y1="8.03226" x2="41.8548" y2="42" gradientUnits="userSpaceOnUse">
<stop stop-color="#A685FA"/>
<stop offset="0.323723" stop-color="#A685FA" stop-opacity="0"/>
</linearGradient>
<linearGradient id="paint3_linear_139_8148" x1="49.1129" y1="50.129" x2="7.30645" y2="20.5161" gradientUnits="userSpaceOnUse">
<stop stop-color="#A685FA"/>
<stop offset="0.576615" stop-color="#A685FA" stop-opacity="0"/>
</linearGradient>
</defs>
</svg>
