<svg width="300" height="200" viewBox="0 0 300 200" fill="none" xmlns="http://www.w3.org/2000/svg">
<g style="mix-blend-mode:color-dodge">
<path d="M0.131683 199.797C99.8733 199.374 199.639 199.186 299.38 199.797" stroke="#666666" stroke-miterlimit="10"/>
<path d="M0.131683 195.82C29.0072 193.889 58.3256 193.231 87.241 194.755C99.0513 195.377 110.894 195.684 122.708 195.03C135.592 194.316 147.857 191.468 160.569 189.728C183.176 186.633 206.099 193.905 228.61 195.118C252.323 196.398 275.608 193.071 299.38 196.103" stroke="#666666" stroke-miterlimit="10"/>
<path d="M0.131683 191.376C30.1244 188.061 61.2103 187.455 91.2749 190.431C103.329 191.623 115.482 192.254 127.556 190.989C141.804 189.501 154.169 184.02 167.879 180.674C190.777 175.085 213.384 188.656 235.864 190.861C245.731 191.831 255.499 189.713 265.342 189.078C276.981 188.324 288.085 189.525 299.38 192.409" stroke="#666666" stroke-miterlimit="10"/>
<path d="M0.131683 186.557C31.0461 182.078 62.8303 182.628 93.7686 186.781C105.942 188.412 118.123 189.31 130.325 187.419C136.673 186.434 142.865 184.778 148.922 182.644C157.157 179.744 164.75 174.415 172.918 171.751C195.84 164.271 217.594 183.354 239.331 186.765C249.306 188.328 258.407 185.085 268.235 183.965C279.179 182.716 289.146 184.854 299.384 188.719" stroke="#666666" stroke-miterlimit="10"/>
<path d="M0.131683 181.436C30.3957 176.134 61.3141 177.794 91.4704 183.159C104.558 185.488 117.665 187.024 130.832 184.352C147.55 180.957 159.879 170.909 175.184 164.487C200.006 154.072 219.772 179.337 242.926 183.179C252.067 184.695 259.604 180.825 268.354 179.138C279.586 176.972 289.29 180.159 299.38 185.03" stroke="#666666" stroke-miterlimit="10"/>
<path d="M0.131683 176.094C30.4196 169.88 60.1291 173.558 89.9701 180.287C103.097 183.247 116.26 184.866 129.503 181.591C136.378 179.892 142.873 177.12 149.146 173.865C158.534 168.994 166.841 160.857 176.261 156.505C201.582 144.805 219.649 174.307 242.172 179.206C252.422 181.436 259.241 176.537 268.693 174.132C279.929 171.276 289.725 175.883 299.38 181.336" stroke="#666666" stroke-miterlimit="10"/>
<path d="M0.131683 170.618C29.8211 163.569 57.0528 169.453 85.8205 177.283C99.179 180.917 112.529 183.115 126.131 179.345C133.329 177.351 140.028 174.064 146.46 170.319C156.539 164.451 165.233 155.097 175.38 149.776C202.029 135.803 217.833 170.063 240.863 175.52C251.688 178.085 258.028 172.205 267.668 169.17C279.335 165.496 289.705 171.599 299.376 177.642" stroke="#666666" stroke-miterlimit="10"/>
<path d="M0.131683 165.081C28.4845 157.271 52.564 164.985 79.4326 173.817C92.7591 178.197 106.05 181.475 119.939 177.885C141.07 172.425 154.843 155.807 172.603 144.61C201.442 126.432 214.294 166.912 239.455 172.066C250.347 174.299 256.508 167.355 266.136 164C278.329 159.752 289.585 167.403 299.38 173.94" stroke="#666666" stroke-miterlimit="10"/>
<path d="M0.131683 159.572C27.6426 150.689 48.7656 160.673 74.0301 170.57C87.6719 175.911 101.469 180.243 116.005 175.827C137.555 169.281 151.599 151.451 169.415 139.049C199.703 117.968 209.646 163.015 235.66 168.312C246.733 170.566 253.567 162.859 263.048 159.098C276.438 153.784 288.731 162.827 299.38 170.259" stroke="#666666" stroke-miterlimit="10"/>
<path d="M0.131683 154.163C12.4567 149.468 24.4865 148.387 37.2345 152.177C49.005 155.675 59.1116 162.74 70.2197 167.738C83.3388 173.641 96.8169 178.819 111.173 174.116C133.976 166.645 147.701 146.357 166.31 132.899C196.443 111.103 205.209 157.562 229.947 163.829C242.471 167 249.729 157.805 260.378 153.601C274.77 147.917 288.216 158.527 299.38 166.565" stroke="#666666" stroke-miterlimit="10"/>
<path d="M0.131683 148.942C11.2238 143.92 22.2761 142.356 33.9907 146.281C45.5297 150.147 54.9022 158.284 65.5315 163.916C77.8964 170.47 90.6205 177.048 104.849 172.851C128.705 165.823 143.679 143.038 162.193 128.295C193.762 103.153 199 153.713 224.863 159.532C238.134 162.52 246.397 151.858 257.793 147.701C273.122 142.113 287.825 154.323 299.376 162.867" stroke="#666666" stroke-miterlimit="10"/>
<path d="M0.131683 143.984C25.7673 130.222 41.1647 146.501 62.0442 159.656C73.9025 167.127 86.6704 175.771 101.202 170.961C124.735 163.17 140.216 139.747 158.055 124.171C169.57 114.119 180.595 111.785 190.458 124.502C199.012 135.527 204.507 151.407 219.728 154.602C232.983 157.382 242.344 146.469 253.715 142.021C270.449 135.471 287.015 149.792 299.38 159.177" stroke="#666666" stroke-miterlimit="10"/>
<path d="M0.131683 139.373C24.9613 123.772 40.4345 139.971 60.0173 154.674C70.4631 162.516 82.2894 173.378 96.402 169.696C104.992 167.455 112.609 161.084 119.169 155.46C131.777 144.654 142.243 131.905 154.213 120.489C165.688 109.543 177 105.235 186.839 119.675C194.173 130.437 199.798 147.063 214.541 149.413C228.558 151.646 238.816 139.624 251.11 135.467C268.841 129.468 286.716 145.591 299.38 155.476" stroke="#666666" stroke-miterlimit="10"/>
<path d="M0.131683 135.192C9.81138 128.232 20.4926 123.864 32.287 128.104C42.7886 131.881 50.9521 140.657 59.0238 147.969C68.121 156.21 79.6121 170.841 93.5771 167.965C101.437 166.346 108.352 160.33 114.225 155.209C127.189 143.9 138.552 130.8 150.207 118.199C161.116 106.4 173.205 97.9118 183.38 114.334C190.23 125.387 195.549 142.871 211.086 143.485C224.875 144.032 235.237 133.022 247.666 128.962C266.73 122.735 286.07 141.036 299.384 151.786" stroke="#666666" stroke-miterlimit="10"/>
<path d="M0.131683 131.355C10.0667 123.616 21.135 118.479 33.6834 122.938C44.2729 126.7 53.0428 135.276 60.8712 142.987C69.0108 151.008 79.9353 166.764 93.2619 164.076C100.719 162.572 107.279 156.545 112.777 151.654C125.349 140.466 136.577 127.709 147.937 115.331C158.338 103.999 170.556 93.6677 180.874 110.014C187.625 120.708 192.752 137.777 207.998 137.988C221.667 138.176 233.067 128.256 245.831 124.857C265.697 119.564 285.112 136.915 299.38 148.001" stroke="#666666" stroke-miterlimit="10"/>
<path d="M0.131683 127.079C11.0922 118.459 22.7868 113.824 36.1852 119.807C47.2653 124.757 56.969 134.123 65.5435 142.416C73.2361 149.859 82.7682 162.42 94.8978 158.507C102.299 156.118 108.735 149.736 114.257 144.606C125.325 134.327 135.612 123.194 146.053 112.288C156.004 101.889 168.078 91.7729 178.775 106.273C186.384 116.588 191.228 133.086 206.418 133.84C219.948 134.51 233.031 125.587 246.074 123.194C265.801 119.572 284.147 133.166 299.384 143.641" stroke="#666666" stroke-miterlimit="10"/>
<path d="M0.131683 122.328C11.9181 113.337 23.9279 109.384 37.6974 116.484C48.2469 121.921 57.9824 130.677 66.6607 138.667C74.7484 146.114 84.6794 158.946 96.9007 153.266C103.281 150.302 108.532 144.658 113.543 139.883C124.084 129.831 134.055 119.173 144.35 108.873C154.999 98.219 167.065 89.9579 178.113 104.123C185.718 113.875 191.196 129.229 205.616 129.867C218.882 130.457 232.061 124.103 245.009 121.989C264.995 118.726 282.738 128.914 299.384 138.73" stroke="#666666" stroke-miterlimit="10"/>
<path d="M0.131683 117.19C13.7256 107.385 26.693 105.168 41.1687 114.29C51.5705 120.844 61.1864 129.723 70.495 137.729C78.2675 144.414 87.0096 154.909 97.8862 148.83C103.712 145.575 108.559 139.771 113.2 135.076C123.079 125.076 132.699 114.833 142.865 105.12C153.399 95.0557 165.457 87.7919 176.668 100.509C185.039 110.002 190.837 125.144 205.221 126.516C217.897 127.725 231.71 122.771 244.179 120.84C264.105 117.757 281.637 124.797 299.376 133.393" stroke="#666666" stroke-miterlimit="10"/>
<path d="M0.131683 111.761C14.8587 101.857 28.4007 100.796 43.1597 111.159C54.2957 118.977 64.3026 128.858 74.892 137.426C82.1737 143.314 90.2295 151.387 99.3306 144.622C105.348 140.15 110.259 133.413 115.255 127.924C123.701 118.65 132.36 109.5 141.652 101.067C153.04 90.7318 165.389 85.8494 176.856 98.3068C185.251 107.425 191.683 121.658 205.476 123.202C218.531 124.661 232.648 121.235 245.579 119.46C264.596 116.851 281.521 121.099 299.38 127.709" stroke="#666666" stroke-miterlimit="10"/>
<path d="M0.131683 106.125C16.9215 95.6302 31.1937 96.7471 46.607 109.049C58.3016 118.383 68.2686 129.245 80.458 138.052C88.821 144.091 94.8499 147.502 102.483 139.085C115.454 124.781 125.96 108.478 141.158 96.1447C152.314 87.0939 164.587 83.7193 175.703 94.254C185.095 103.153 191.415 116.815 204.973 120.022C217.49 122.978 233.199 120.062 245.783 118.347C264.356 115.814 281.118 117.302 299.384 121.801" stroke="#666666" stroke-miterlimit="10"/>
<path d="M0.131683 100.377C18.9325 89.4114 34.242 92.9735 50.0942 107.011C61.4497 117.067 70.894 128.71 83.7817 136.971C93.2419 143.038 98.2214 144.111 104.693 134.45C114.947 119.145 125.27 103.5 140.208 92.2117C152.286 83.081 164.523 81.0307 176.325 91.5575C186.153 100.325 193.147 114.43 207.044 117.533C219.369 120.286 233.753 118.977 246.178 117.286C264.217 114.829 281.162 113.72 299.384 115.75" stroke="#666666" stroke-miterlimit="10"/>
<path d="M0.131683 94.609C20.6242 83.3004 36.656 88.8729 52.8992 104.346C64.3943 115.295 73.8706 128.67 88.023 136.433C98.5286 142.197 102.215 139.201 107.227 129.32C115.199 113.608 125.281 97.7283 140.048 87.4927C152.549 78.8248 165.193 78.5576 176.936 88.5179C187.178 97.2097 194.639 110.948 208.361 114.801C237.791 123.066 269.819 110.712 299.384 109.687" stroke="#666666" stroke-miterlimit="10"/>
<path d="M0.131683 88.9088C10.3261 83.4799 19.91 80.2569 31.3174 84.2099C40.7537 87.4808 48.4823 94.3457 55.4049 101.338C66.8242 112.882 76.5877 128.415 91.8015 135.276C103.213 140.422 105.914 133.489 109.764 123.816C116.041 108.036 125.517 91.8686 140.324 82.6303C172.595 62.4902 184.241 103.241 209.917 112.076C239.902 122.396 270.062 109.376 299.384 103.7" stroke="#666666" stroke-miterlimit="10"/>
<path d="M0.131683 83.3682C10.765 77.7439 20.5644 74.6086 32.1792 78.8807C41.9228 82.4627 49.799 89.7824 56.8573 97.1978C67.9574 108.857 79.4366 129.041 95.995 133.684C107.586 136.935 109.413 126.093 112.35 117.366C117.489 102.088 126.347 85.243 141.166 77.1615C171.928 60.3841 187.421 98.1072 210.647 108.77C241.119 122.759 270.625 108.415 299.38 97.8918" stroke="#666666" stroke-miterlimit="10"/>
<path d="M0.131683 78.0829C10.8687 72.2431 20.5404 69.0719 32.3588 73.2084C42.1582 76.6389 50.1661 84.2936 57.1326 91.7529C68.4362 103.859 80.5538 126.855 98.1296 130.286C110.076 132.619 111.751 120.688 114.361 111.729C118.842 96.3601 126.909 79.3474 142.395 72.1993C173.201 57.9788 189.815 94.1941 212.538 105.906C224.369 112.001 239.686 115.124 252.865 113.002C269.571 110.313 284.849 100.417 299.384 92.3871" stroke="#666666" stroke-miterlimit="10"/>
<path d="M0.131683 73.1367C11.567 66.527 22.6192 62.7176 35.2794 68.4297C44.7796 72.7178 52.3167 80.5999 59.1276 88.2506C69.3339 99.7148 82.1976 123.868 99.3665 125.679C112.29 127.043 113.922 112.934 116.691 103.408C120.972 88.6854 128.681 72.9013 144.198 67.2211C174.773 56.0242 192.453 89.5989 214.513 102.718C225.661 109.348 240.233 113.887 253.272 112.264C270.74 110.086 285.858 97.4491 299.376 87.2574" stroke="#666666" stroke-miterlimit="10"/>
<path d="M0.131683 68.6253C10.9286 61.7484 21.5579 56.9617 34.3139 62.1114C44.5362 66.2399 52.6758 75.0035 59.6981 83.1928C69.7369 94.9002 82.3612 118.937 100.196 119.36C112.913 119.659 115.267 105.347 118.267 95.7898C122.907 81.0228 130.245 66.6986 146.52 62.5222C177.686 54.5205 194.99 85.2191 217.29 99.9462C228.207 107.158 242.767 113.106 256.065 111.187C273.457 108.674 287.43 94.2221 299.38 82.6303" stroke="#666666" stroke-miterlimit="10"/>
<path d="M0.131683 64.6403C10.0428 57.4563 20.337 51.437 32.9413 55.6573C42.7646 58.9441 50.5012 66.9938 57.1126 74.6285C67.9414 87.1298 78.8341 109.368 97.4753 110.788C111.648 111.865 115.33 98.0953 119.408 87.2016C124.97 72.3389 132.723 59.7539 149.756 57.4523C179.952 53.3716 197.353 79.3275 218.332 95.6661C228.849 103.855 243.09 111.697 256.851 110.357C275.105 108.578 288.54 91.6093 299.38 78.6015" stroke="#666666" stroke-miterlimit="10"/>
<path d="M0.131683 61.497C9.99492 54.6162 20.1654 48.9519 32.5184 52.9727C42.1382 56.104 49.795 63.7986 56.3266 71.202C66.8482 83.1209 77.9842 106.001 96.0908 106.628C110.092 107.11 114.884 94.7127 119.903 83.815C126.339 69.8498 135.049 57.0653 151.567 54.8355C180.706 50.9025 198.909 75.1511 219.589 90.6599C229.735 98.2668 244.047 106.005 257.079 105.75C275.297 105.391 288.791 88.0672 299.38 75.4223" stroke="#666666" stroke-miterlimit="10"/>
<path d="M0.131683 59.347C9.83931 52.7055 19.8621 47.1968 31.9717 50.8586C41.3282 53.6867 48.8733 60.8907 55.3012 67.9431C65.6552 79.3075 76.7433 101.949 94.2633 102.056C108.001 102.14 113.85 91.2104 119.847 80.564C127.173 67.5602 136.789 55.0829 152.721 52.8969C180.806 49.0476 199.778 70.7952 220.47 85.2709C230.517 92.2994 244.674 100.142 257.106 101.251C275.233 102.866 288.947 85.3707 299.376 73.1805" stroke="#666666" stroke-miterlimit="10"/>
<path d="M0.131683 58.0147C9.4443 51.6524 19.3993 46.1517 31.0301 49.1035C40.9452 51.6165 48.8214 59.1117 55.5725 66.3675C65.8347 77.3968 76.1249 97.8839 93.2698 97.122C106.241 96.5476 112.853 86.703 119.628 77.0139C127.947 65.111 137.99 53.95 153.223 51.788C180.886 47.859 200.265 66.6587 221.787 80.0694C231.73 86.2682 244.347 93.6197 255.802 96.5835C274.371 101.386 288.512 83.9905 299.38 71.7047" stroke="#666666" stroke-miterlimit="10"/>
<path d="M0.131683 57.3286C9.18894 51.0621 18.9325 45.4417 30.3718 47.7672C39.8958 49.7058 47.6364 56.3753 54.2718 63.0727C64.6776 73.5715 74.3653 92.4271 90.9756 91.6891C103.576 91.1307 111.153 82.8417 118.862 73.9105C128.098 63.2123 138.76 53.0485 153.407 50.9185C179.9 47.0652 200.201 62.0954 221.975 74.0541C232.78 79.9896 244.143 87.2455 255.487 92.0481C273.749 99.7826 288.105 83.0451 299.376 70.8351" stroke="#666666" stroke-miterlimit="10"/>
<path d="M0.131683 57.1172C19.1878 43.6107 35.6705 43.6785 52.975 59.694C63.6003 69.5267 72.6297 86.4037 88.6574 85.8293C100.847 85.3906 109.322 78.6732 117.912 70.7872C128.035 61.497 139.187 52.51 153.251 50.4198C178.496 46.6662 199.87 57.536 221.839 67.8473C233.933 73.5236 243.716 80.6438 254.98 87.5486C272.767 98.4503 287.287 82.8855 299.384 70.4202" stroke="#666666" stroke-miterlimit="10"/>
<path d="M0.131683 57.209C17.8672 44.2211 34.1902 41.7001 51.7541 56.1559C62.6587 65.131 71.0576 79.8341 86.435 79.5309C112.039 79.0283 127.807 53.958 152.832 50.1765C176.804 46.5546 199.324 52.9768 221.372 61.4851C234.85 66.6866 243.337 74.0542 254.27 83.0412C271.419 97.138 285.994 83.3483 299.38 70.2767" stroke="#666666" stroke-miterlimit="10"/>
<path d="M0.131683 57.4323C16.351 45.0747 32.5463 39.8412 50.2618 52.0832C61.2143 59.6501 69.2462 72.295 83.3986 72.7816C108.847 73.6632 127.783 53.7346 152.206 49.9252C174.49 46.4508 198.306 48.3775 219.804 54.8236C235.11 59.4148 242.926 67.7636 253.715 78.9086C257.745 83.073 262.278 87.409 268.33 88.0632C280.372 89.3596 291.636 77.4287 299.38 70.2646" stroke="#666666" stroke-miterlimit="10"/>
<path d="M0.131683 57.6159C15.2218 45.6571 31.3413 38.0582 49.4519 48.0704C60.6557 54.2652 68.4482 64.78 81.8106 65.5578C106.672 67.0058 127.616 53.6868 151.532 49.9731C172.986 46.6424 197.297 43.8661 218.723 48.4613C235.205 51.9955 242.619 61.8521 252.61 74.4491C256.436 79.2756 260.769 84.8282 267.093 86.344C279.311 89.2719 291.364 77.2373 299.376 70.2208" stroke="#666666" stroke-miterlimit="10"/>
<path d="M0.131683 57.5839C14.8587 45.4577 31.2256 36.0718 50.186 44.1613C60.5241 48.573 68.2167 56.6585 79.7199 57.7834C104.442 60.2047 126.921 53.6349 151.061 50.0928C163.781 48.226 176.313 46.3751 188.926 43.8342C198.729 41.8597 208.257 40.8345 218.224 42.2625C235.445 44.7277 242.719 57.0295 251.648 70.4322C255.223 75.7973 259.52 82.4588 266.016 84.5929C278.465 88.6855 290.882 77.0379 299.38 69.9655" stroke="#666666" stroke-miterlimit="10"/>
<path d="M0.131683 57.169C14.3161 45.1146 30.691 33.9456 50.0783 39.1112C60.3565 41.8516 68.6517 48.2259 79.3328 49.5741C103.7 52.6456 126.275 53.3437 150.622 49.9531C163.513 48.1581 175.599 45.5134 187.896 41.2533C197.365 37.9744 206.45 35.2859 216.6 36.0039C234.675 37.2803 242.016 51.8119 250.176 65.9247C253.651 71.936 257.849 79.6705 264.584 82.5944C277.272 88.103 290.347 76.5272 299.388 69.3591" stroke="#666666" stroke-miterlimit="10"/>
<path d="M0.131683 56.1998C14.1166 44.0336 30.4276 31.6082 50.0464 33.4909C60.5799 34.5001 70.2197 39.4783 80.6775 41.018C104.581 44.5402 125.609 52.5779 150.163 49.5822C163.154 47.9946 174.829 44.604 186.536 38.8042C195.354 34.4363 203.756 30.0166 213.859 29.889C233.498 29.6496 240.915 46.7979 248.823 61.9239C252.239 68.4577 256.344 76.9581 263.303 80.4604C276.215 86.9623 289.828 75.5101 299.38 68.2224" stroke="#666666" stroke-miterlimit="10"/>
<path d="M0.131683 54.5044C14.4039 41.9434 30.7588 28.7082 50.5691 27.3998C61.2502 26.6938 72.494 29.8689 82.8879 32.0229C106.265 36.8655 125.728 51.5965 150.554 48.916C163.318 47.5398 174.59 43.3874 185.291 36.3828C193.925 30.7305 201.837 24.6714 212.558 24.0451C232.624 22.8764 239.974 42.793 247.295 57.907C250.774 65.083 254.768 73.7629 261.942 78.0111C274.826 85.6379 289.681 73.5874 299.38 66.4074" stroke="#666666" stroke-miterlimit="10"/>
<path d="M0.131683 51.9037C24.5544 30.4593 50.2937 13.9253 83.5423 21.9589C107.211 27.679 125.441 49.9252 151.121 47.827C164.132 46.762 175.092 41.5405 184.992 33.2715C192.744 26.7975 199.651 19.6972 210.228 18.5524C230.402 16.3705 237.795 36.7698 244.71 51.8638C248.484 60.1009 252.57 70.4043 260.761 75.3106C273.968 83.2206 289.306 71.0664 299.376 63.7428" stroke="#666666" stroke-miterlimit="10"/>
<path d="M0.131683 48.3696C23.6327 28.2974 53.8648 6.09509 86.7422 15.3015C109.82 21.7635 127.257 46.3711 152.621 45.0707C165.305 44.4205 176.082 38.3454 185.035 29.7374C192.138 22.9123 198.486 15.2137 208.931 14.057C228.283 11.9069 236.159 32.043 242.978 46.3592C247.06 54.9233 251.337 65.4062 259.732 70.6756C273.174 79.1121 288.699 67.5921 299.376 60.1568" stroke="#666666" stroke-miterlimit="10"/>
<path d="M0.131683 44.6758C23.7165 25.4572 54.6787 4.2362 87.0375 12.206C110.822 18.0618 129.662 42.4819 155.414 40.8105C167.085 40.0526 176.864 34.3844 185.059 26.3906C191.599 20.0123 197.333 12.7445 206.881 11.1849C225.925 8.07353 235.333 28.7161 242.723 42.4061C246.968 50.2642 251.572 59.3709 259.277 64.4408C272.751 73.3082 287.913 63.4915 299.38 56.112" stroke="#666666" stroke-miterlimit="10"/>
<path d="M0.131683 40.982C24.1633 22.4416 56.6338 1.93856 88.7532 10.1079C112.107 16.0473 132.096 38.3374 157.297 36.9692C168.042 36.3868 177.451 30.6627 184.964 23.379C190.985 17.5432 196.343 10.5905 204.993 8.7596C223.738 4.79462 234.519 25.5968 242.683 38.5847C247.59 46.391 252.722 54.9831 261.148 59.3988C274.483 66.3834 287.746 58.6728 299.38 51.768" stroke="#666666" stroke-miterlimit="10"/>
<path d="M0.131683 37.2883C24.9334 19.3262 58.1939 0.462682 90.2814 8.40859C113.411 14.1367 134.251 34.7753 159.065 33.08C169.06 32.3979 177.602 27.3759 184.744 20.6625C190.749 15.0182 196.144 8.13735 204.722 6.55375C222.545 3.25891 234.156 22.7926 242.854 34.895C247.846 41.8397 253.136 48.924 260.745 53.1323C273.984 60.4479 287.327 53.7505 299.38 47.1768" stroke="#666666" stroke-miterlimit="10"/>
<path d="M0.131683 33.5946C25.105 16.7813 57.3281 0.55042 88.6415 6.45002C112.877 11.0173 134.778 31.265 160.23 29.482C169.882 28.8039 178.101 23.8816 185.131 17.5551C190.881 12.3775 196.104 6.41013 204.072 4.90631C220.566 1.79097 232.847 18.6162 241.913 29.6096C247.846 36.8096 254.329 44.7116 263.207 48.3934C275.76 53.5989 288.117 48.0384 299.384 42.3981" stroke="#666666" stroke-miterlimit="10"/>
<path d="M0.131683 29.9009C25.7274 14.0809 58.6168 -0.434762 89.639 5.49675C113.288 10.0202 136.266 27.9862 161 26.1633C178.963 24.839 186.803 7.23591 202.994 3.66983C219.273 0.0877857 232.528 15.9397 242.535 26.1992C248.552 32.37 254.832 38.852 262.956 42.2027C275.532 47.3883 287.738 42.7891 299.376 37.4838" stroke="#666666" stroke-miterlimit="10"/>
<path d="M0.131683 26.2072C26.4017 11.524 58.6687 -0.39484 89.3996 4.54742C113.24 8.38076 136.641 24.6675 161.327 22.8206C178.284 21.5521 187.35 5.73612 203.002 2.66864C218.264 -0.31905 231.395 12.266 241.877 21.4604C248.349 27.1406 255.008 33.1 263.159 36.2553C275.644 41.0898 287.586 37.3801 299.384 32.5017" stroke="#666666" stroke-miterlimit="10"/>
<path d="M0.131683 22.5134C26.7967 9.30208 58.7046 -0.454794 88.8809 3.84525C112.737 7.2438 136.693 21.3326 161.175 19.5576C177.447 18.3769 187.972 4.655 203.338 1.86276C218.495 -0.893575 232.301 10.4788 243.636 18.7877C249.793 23.2992 256.209 27.8625 263.471 30.4313C275.987 34.859 287.41 31.9391 299.38 27.5035" stroke="#666666" stroke-miterlimit="10"/>
<path d="M0.131683 18.8197C27.08 7.29974 58.541 -0.414812 88.1228 3.23903C112.019 6.19082 136.198 17.9701 160.549 16.3586C176.529 15.3015 188.746 3.8254 204.163 1.32435C218.392 -0.981237 231.806 7.6029 243.449 14.5915C262.373 25.9519 277.99 29.5379 299.38 22.5374" stroke="#666666" stroke-miterlimit="10"/>
<path d="M0.131683 15.126C27.2396 5.50075 57.0807 0.199489 85.9482 2.63671C110.343 4.69898 134.602 14.3282 159.248 13.0916C175.779 12.262 189.943 2.47317 206.214 0.813781C219.657 -0.558404 232.345 5.54862 244.171 11.1331C263.139 20.0962 278.776 23.4788 299.38 17.6749" stroke="#666666" stroke-miterlimit="10"/>
<path d="M0.131683 11.4322C27.7264 3.78147 57.1884 0.219369 85.8405 2.24972C109.752 3.94501 133.756 11.0652 157.828 10.0321C174.733 9.30611 190.51 2.11809 207.284 0.642193C221.4 -0.598358 234.655 4.32396 247.782 8.86334C265.414 14.9624 280.951 17.2321 299.38 12.9719" stroke="#666666" stroke-miterlimit="10"/>
<path d="M0.131683 7.74248C27.3234 2.47712 55.4927 0.398895 83.1872 1.63546C107.303 2.71246 131.39 7.43533 155.573 6.79711C174.087 6.31046 192.15 1.37618 210.623 0.414851C223.806 -0.271242 236.55 2.76432 249.306 5.71212C266.295 9.63721 282.044 11.4641 299.38 8.47644" stroke="#666666" stroke-miterlimit="10"/>
<path d="M0.131683 4.04869C27.108 1.25645 54.3595 0.398835 81.4755 1.00914C105.316 1.54764 129.144 3.92104 153.004 3.60193C173.297 3.33068 193.486 0.793738 213.771 0.291135C242.543 -0.42288 270.521 7.15605 299.38 4.25212" stroke="#666666" stroke-miterlimit="10"/>
<path d="M0.131683 0.355015C99.8773 -0.195455 199.635 0.957341 299.38 0.355015" stroke="#666666" stroke-miterlimit="10"/>
</g>
</svg>
